<svg width="140" height="140" viewBox="0 0 140 140" fill="none" xmlns="http://www.w3.org/2000/svg">
<path fill-rule="evenodd" clip-rule="evenodd" d="M111.376 130.854C111.376 130.854 111.376 130.936 111.376 114.871H104.779C104.779 130.936 104.779 130.854 104.779 130.854H111.376Z" fill="#231F20"/>
<path fill-rule="evenodd" clip-rule="evenodd" d="M76.4507 124.222V115.118H70.0589V122.078C70.0589 124.099 69.9767 124.668 69.8534 125.195C69.4081 126.654 67.8735 127.298 66.2909 127.298C64.1055 127.298 63.0916 126.449 62.6874 125.113C62.5641 124.668 62.523 124.181 62.4819 123.695C62.4408 123.167 62.4819 122.606 62.4819 121.996V115.118H56.0078V124.264C56.0078 126.326 56.6929 127.867 57.8301 128.915C59.7758 130.82 63.0505 131.382 66.0854 131.382C69.7711 131.382 72.6005 130.854 74.6215 128.874C75.6766 127.86 76.4439 126.524 76.4439 124.222H76.4507Z" fill="#231F20"/>
<path fill-rule="evenodd" clip-rule="evenodd" d="M45.0463 123.085C44.8408 123.044 44.4777 123.003 44.0735 123.003H36.7911C36.428 123.003 36.0238 123.044 35.8183 123.085C35.9416 122.962 36.1814 122.722 36.428 122.4L39.7027 116.974C40.148 116.248 40.3535 115.762 40.4289 115.556C40.5111 115.762 40.7098 116.241 41.1551 117.015L44.512 122.476C44.6764 122.715 44.9162 122.962 45.0395 123.085H45.0463ZM57.2682 130.854L42.7033 109H34.5303L36.6746 111.549C36.7157 111.59 36.7979 111.631 36.8801 111.672C36.7979 111.713 36.7157 111.754 36.6746 111.795L23.9663 130.854H31.331L33.3109 127.579C33.3931 127.415 33.4342 127.257 33.4342 127.175C33.5164 127.175 33.715 127.257 33.9206 127.257H47.0742C47.2797 127.257 47.4373 127.216 47.5195 127.175C47.5195 127.257 47.5195 127.381 47.6017 127.497L49.6638 130.854H57.2682Z" fill="#231F20"/>
<path fill-rule="evenodd" clip-rule="evenodd" d="M102.997 122.64C102.997 120.859 102.271 118.797 100.004 115.919L94.5435 109H86.9391L91.2688 113.857C91.995 114.666 92.9267 115.392 92.9267 115.392C91.8717 114.782 90.5427 114.542 89.4876 114.542C86.9802 114.542 84.4317 115.07 82.1641 116.324C79.7389 117.659 78.1152 119.886 78.1152 122.839C78.1152 125.106 79.1292 126.846 80.424 128.182C83.3356 131.094 88.6381 131.382 90.5838 131.382C93.4543 131.382 97.9484 130.731 100.497 128.429C101.997 127.052 103.004 125.154 103.004 122.64H102.997ZM96.6878 122.846C96.6878 124.503 95.5986 125.757 94.2216 126.449C93.0912 127.059 91.7553 127.216 90.5769 127.216C89.3986 127.216 88.0284 126.977 86.8912 126.408C85.5141 125.723 84.466 124.387 84.466 122.928C84.466 121.188 85.8019 119.811 87.3776 119.126C88.3504 118.68 89.5219 118.516 90.4536 118.516C91.3853 118.516 92.639 118.639 93.6529 119.043C95.4753 119.811 96.6878 121.27 96.6878 122.846Z" fill="#231F20"/>
<path fill-rule="evenodd" clip-rule="evenodd" d="M109.351 32C104.418 32 99.8898 33.6922 96.3 36.5353C92.7102 33.6922 88.1818 32 83.2492 32C78.3166 32 73.7881 33.6922 70.1983 36.5353C66.6085 33.6922 62.0801 32 57.1475 32C52.2149 32 47.6865 33.6922 44.0966 36.5353C40.5068 33.6922 35.9784 32 31.0458 32C19.4199 32 10 41.4199 10 53.0458C10 64.6716 19.4199 74.0915 31.0458 74.0915C35.9784 74.0915 40.5068 72.3994 44.0966 69.5563C47.6865 72.3925 52.2149 74.0915 57.1475 74.0915C62.0801 74.0915 66.6085 72.3994 70.1983 69.5563C73.7881 72.3925 78.3166 74.0915 83.2492 74.0915C88.1818 74.0915 92.7102 72.3994 96.3 69.5563C99.8898 72.3994 104.418 74.0915 109.351 74.0915C120.977 74.0915 130.397 64.6716 130.397 53.0458C130.397 41.4199 120.977 32 109.351 32ZM40.6506 66.124C37.972 68.0834 34.6151 69.2754 31.0458 69.2754C22.078 69.2754 14.8161 62.0204 14.8161 53.0458C14.8161 44.0712 22.0712 36.8161 31.0458 36.8161C34.6219 36.8161 37.9651 38.0082 40.6506 39.9675C37.7938 43.5574 36.0948 48.0995 36.0948 53.0458C36.0948 57.9921 37.8144 62.5342 40.6506 66.124ZM44.0966 62.6917C42.0962 59.9925 40.9247 56.663 40.9247 53.0526C40.9247 49.4422 42.0962 46.1127 44.0966 43.4135C46.0971 46.1127 47.2754 49.4354 47.2754 53.0526C47.2754 56.6699 46.0971 59.9925 44.0966 62.6917ZM66.7523 66.124C64.06 68.1039 60.7304 69.2686 57.1338 69.2686C53.5371 69.2686 50.2281 68.1039 47.5357 66.124C50.372 62.541 52.0915 57.9715 52.0915 53.0458C52.0915 48.12 50.3925 43.5642 47.5357 39.9675C50.2281 37.9876 53.5302 36.823 57.1338 36.823C60.7373 36.823 64.06 37.9876 66.7523 39.9675C63.8955 43.5574 62.1965 48.0995 62.1965 53.0458C62.1965 57.9921 63.9161 62.5342 66.7523 66.124ZM70.1983 62.6917C68.1979 59.9925 67.0264 56.663 67.0264 53.0526C67.0264 49.4422 68.1979 46.1127 70.1983 43.4135C72.1987 46.1127 73.3771 49.4354 73.3771 53.0526C73.3771 56.6699 72.1987 59.9925 70.1983 62.6917ZM92.854 66.124C90.1616 68.1039 86.8321 69.2686 83.2355 69.2686C79.6388 69.2686 76.3298 68.1039 73.6374 66.124C76.4737 62.541 78.1932 57.9715 78.1932 53.0458C78.1932 48.12 76.4942 43.5642 73.6374 39.9675C76.3298 37.9876 79.6319 36.823 83.2355 36.823C86.839 36.823 90.1616 37.9876 92.854 39.9675C89.9972 43.5574 88.2982 48.0995 88.2982 53.0458C88.2982 57.9921 90.0178 62.5342 92.854 66.124ZM96.3 62.6917C94.2996 59.9925 93.1212 56.663 93.1212 53.0526C93.1212 49.4422 94.2927 46.1127 96.3 43.4135C98.3004 46.1127 99.4719 49.4354 99.4719 53.0526C99.4719 56.6699 98.2936 59.9925 96.3 62.6917ZM109.351 69.2754C105.775 69.2754 102.425 68.0834 99.746 66.124C102.582 62.541 104.302 57.9715 104.302 53.0458C104.302 48.12 102.603 43.5642 99.746 39.9675C102.431 38.0082 105.782 36.8161 109.351 36.8161C118.319 36.8161 125.58 44.0712 125.58 53.0458C125.58 62.0204 118.325 69.2754 109.351 69.2754Z" fill="#231F20"/>
</svg>
