<svg width="164" height="140" viewBox="0 0 164 140" fill="none" xmlns="http://www.w3.org/2000/svg">
<path fill-rule="evenodd" clip-rule="evenodd" d="M39.7754 27.8169C39.7754 27.8169 39.1527 35.4958 39.7426 44.1347C40.9878 62.3234 44.1337 71.3202 47.9677 74.0208C55.9143 79.6011 70.7425 78.8853 82.3921 78.8853V80.9677C64.6474 80.3658 51.343 81.0002 45.3462 73.8744C41.7251 69.5631 39.5951 55.2301 39.1855 43.8581C38.8578 34.4872 39.5787 27.7681 39.5787 27.7681C39.5787 27.7681 39.6115 27.7681 39.6934 27.8006C39.7262 27.8006 39.759 27.8006 39.7917 27.8169H39.7754Z" fill="#231F20"/>
<path fill-rule="evenodd" clip-rule="evenodd" d="M48.4431 19.9751C48.1646 20.2354 47.9188 20.512 47.673 20.8374C44.3141 25.2951 44.7074 31.9816 44.6418 37.2528C44.5599 43.9719 44.8712 50.8049 45.8052 57.4751C46.3131 61.0869 46.6899 65.6422 48.4431 69.0749L46.7391 69.7257C46.7391 69.7257 42.4463 61.4285 42.4463 37.448C42.4463 20.2679 48.4267 19.9751 48.4267 19.9751H48.4431Z" fill="#231F20"/>
<path fill-rule="evenodd" clip-rule="evenodd" d="M48.3446 68.8633C48.1972 68.5379 47.509 66.4067 47.1485 64.9262C47.0666 64.5683 46.4112 61.0704 46.2965 60.4197C45.8869 58.5488 45.3954 55.3926 45.0513 51.7808C44.3631 44.6062 43.9371 36.488 43.9371 33.9175C43.8388 34.2754 43.7897 38.2288 43.7569 38.7656C43.7241 39.091 43.7241 41.2223 43.7241 41.629C43.7241 51.9273 45.9524 67.8058 48.361 68.8633H48.3446Z" fill="#231F20"/>
<path fill-rule="evenodd" clip-rule="evenodd" d="M45.9035 20.2353C42.8231 24.5628 42.4463 30.0455 42.4463 38.7982C42.4463 43.5162 43.0853 58.7928 45.6085 66.8134C45.7069 67.1388 46.5425 68.6518 46.8374 68.359C47.1323 68.0824 46.9521 67.4967 46.7555 67.0412C46.5589 66.5694 43.8226 54.4815 43.8226 38.8307C43.8226 37.4316 43.7079 28.3535 44.7238 25.783C45.9035 22.822 46.8046 21.8947 48.1318 20.2841C49.9177 18.0878 55.1117 16.9001 55.1117 16.9001C55.1117 16.9001 55.3575 16.8513 55.4394 16.8839C55.6688 16.9489 55.7507 17.0791 55.7507 17.0791C55.7507 17.0791 56.2586 16.2982 57.8971 15.6962C59.8141 14.9967 61.5509 14.8502 61.5509 14.8502L63.5334 16.0053C63.5334 16.0053 63.5662 15.9728 63.6318 15.9403C64.1069 15.7288 71.9388 14.899 82.3759 15.0292V13.6626C62.6159 13.6626 50.1799 14.2157 45.8871 20.2353H45.9035Z" fill="#231F20"/>
<path fill-rule="evenodd" clip-rule="evenodd" d="M43.8225 35.577C43.8225 35.577 43.675 31.3959 43.9863 28.2722C44.0847 27.1985 44.2485 26.2549 44.4779 25.6529C45.0841 24.0748 45.7723 22.9034 46.3949 22.0575C46.7226 21.6182 47.0339 21.2603 47.2961 20.9837C47.8531 20.4143 48.2136 20.1865 48.2136 20.1865C48.2136 20.1865 45.9197 22.5618 45.0514 25.9783C45.0022 26.1735 44.953 26.385 44.9203 26.5965C44.5107 28.7928 44.0027 33.0878 43.888 34.9262C43.8553 35.1703 43.8553 35.4143 43.8389 35.5119C43.8389 35.5607 43.8061 35.577 43.8389 35.577H43.8225Z" fill="#231F20"/>
<path d="M82.3923 78.2183C60.9447 78.2183 50.4093 78.4786 46.3131 68.7823C43.2819 61.5751 42.4463 43.9558 42.4463 38.8148C42.4463 16.331 45.543 13.6792 82.3923 13.6792" fill="#231F20"/>
<path d="M82.3923 78.2183C60.9447 78.2183 50.4093 78.4786 46.3131 68.7823C43.2819 61.5751 42.4463 43.9558 42.4463 38.8148C42.4463 16.331 45.543 13.6792 82.3923 13.6792" stroke="#939393" stroke-width="0.22" stroke-miterlimit="22.93"/>
<path fill-rule="evenodd" clip-rule="evenodd" d="M125.009 27.8168C125.009 27.8168 123.993 18.0229 116.358 15.4198C106.101 11.922 94.0255 12.3125 82.376 12.3125V11.0923C86.1117 11.0923 108.264 11.1411 117.079 14.8179C124.944 18.088 125.189 27.768 125.189 27.768C125.189 27.768 125.189 27.768 124.993 27.8168H125.009Z" fill="#231F20"/>
<path fill-rule="evenodd" clip-rule="evenodd" d="M125.009 27.8169C125.009 27.8169 125.631 35.4958 125.042 44.1347C123.796 62.3234 120.65 71.3202 116.816 74.0208C108.87 79.6011 94.0416 78.8853 82.3921 78.8853V80.9677C100.137 80.3658 113.441 81.0002 119.438 73.8744C123.059 69.5631 125.189 55.2301 125.599 43.8581C125.943 34.4872 125.205 27.7681 125.205 27.7681C125.205 27.7681 125.173 27.7681 125.107 27.8006C125.074 27.8006 125.042 27.8006 125.009 27.8169Z" fill="#231F20"/>
<path fill-rule="evenodd" clip-rule="evenodd" d="M122.322 37.448C122.322 61.4285 118.029 69.7257 118.029 69.7257L116.325 69.0749C118.095 65.6422 118.472 61.0869 118.963 57.4751C119.897 50.8049 120.208 43.9719 120.126 37.2528C120.061 31.9816 120.454 25.2951 117.095 20.8374C116.866 20.5282 116.604 20.2354 116.325 19.9751C116.325 19.9751 122.322 20.2679 122.322 37.448Z" fill="#231F20"/>
<path fill-rule="evenodd" clip-rule="evenodd" d="M118.881 20.2353C121.962 24.5628 122.338 30.0455 122.338 38.7982C122.338 43.5162 121.683 58.7928 119.176 66.8134C119.078 67.1388 118.242 68.6518 117.947 68.359C117.669 68.0824 117.833 67.4967 118.029 67.0412C118.226 66.5694 120.962 54.4815 120.962 38.8307C120.962 37.4316 121.077 28.3535 120.061 25.783C118.881 22.822 117.98 21.8947 116.653 20.2841C114.867 18.0878 109.673 16.9001 109.673 16.9001C109.673 16.9001 109.427 16.8513 109.329 16.8839C109.099 16.9489 109.018 17.0791 109.018 17.0791C109.018 17.0791 108.51 16.2982 106.871 15.6962C104.954 14.9967 103.201 14.8502 103.201 14.8502L101.218 16.0053C101.218 16.0053 101.186 15.9728 101.12 15.9403C100.645 15.7288 92.8131 14.899 82.376 15.0292V13.6626C102.136 13.6626 114.572 14.2157 118.865 20.2353H118.881Z" fill="#231F20"/>
<path fill-rule="evenodd" clip-rule="evenodd" d="M120.962 35.577C120.962 35.577 121.109 31.3959 120.798 28.2722C120.7 27.1985 120.536 26.2549 120.307 25.6529C119.7 24.0748 119.012 22.9034 118.39 22.0575C118.062 21.6182 117.75 21.2603 117.488 20.9837C116.931 20.4143 116.571 20.1865 116.571 20.1865C116.571 20.1865 118.865 22.5618 119.733 25.9783C119.782 26.1735 119.831 26.385 119.864 26.5965C120.29 28.7928 120.782 33.0878 120.896 34.9262C120.929 35.1703 120.929 35.4143 120.946 35.5119C120.946 35.5607 120.978 35.577 120.946 35.577H120.962Z" fill="#231F20"/>
<path d="M82.3921 78.2183C103.84 78.2183 114.375 78.4786 118.471 68.7823C121.502 61.5751 122.338 43.9558 122.338 38.8148C122.338 16.331 119.241 13.6792 82.3921 13.6792" fill="#231F20"/>
<path d="M82.3921 78.2183C103.84 78.2183 114.375 78.4786 118.471 68.7823C121.502 61.5751 122.338 43.9558 122.338 38.8148C122.338 16.331 119.241 13.6792 82.3921 13.6792" stroke="#939393" stroke-width="0.22" stroke-miterlimit="22.93"/>
<path d="M82.3923 13.6626C45.5594 13.6626 42.4463 16.2982 42.4463 38.7982C42.4463 43.9392 43.2819 61.5585 46.3131 68.7657C50.4093 78.4783 60.9283 78.2017 82.3923 78.2017C103.856 78.2017 114.375 78.462 118.471 68.7657C121.503 61.5585 122.338 43.9392 122.338 38.7982C122.338 16.3144 119.242 13.6626 82.3923 13.6626Z" fill="white"/>
<path d="M82.3923 13.6626C45.5594 13.6626 42.4463 16.2982 42.4463 38.7982C42.4463 43.9392 43.2819 61.5585 46.3131 68.7657C50.4093 78.4783 60.9283 78.2017 82.3923 78.2017C103.856 78.2017 114.375 78.462 118.471 68.7657C121.503 61.5585 122.338 43.9392 122.338 38.7982C122.338 16.3144 119.242 13.6626 82.3923 13.6626Z" stroke="#231F20" stroke-width="0.11" stroke-miterlimit="22.93"/>
<path fill-rule="evenodd" clip-rule="evenodd" d="M119.077 21.293C119.028 21.1954 116.505 18.3808 113.802 17.486C112.9 17.1932 109.935 16.4123 109.05 16.6075C108.804 16.6563 108.837 16.7702 108.837 16.8515C108.1 16.3147 107.723 16.0544 107.493 15.9567C106.641 15.6151 106.478 15.4687 103.643 14.9155C103.774 14.9155 104.167 14.9481 104.348 14.9643C106.019 15.0457 109.886 15.55 113.998 17.063C117.144 18.2181 119.127 21.1466 119.176 21.2442C119.176 21.2442 119.143 21.2604 119.143 21.2767C119.127 21.2767 119.11 21.293 119.094 21.3092L119.077 21.293Z" fill="#231F20"/>
<path fill-rule="evenodd" clip-rule="evenodd" d="M118.979 57.4589C118.34 62.0631 117.898 68.0826 114.572 71.6455C113.409 72.8982 104.331 78.1531 104.757 74.1021C106.429 61.4774 107.346 48.8038 108.133 36.0977C108.362 30.7615 108.673 25.4253 108.739 20.089C108.821 19.1942 108.247 16.9654 109.673 16.9166C112.36 17.6975 115.326 18.4784 117.111 20.8211C120.47 25.2789 120.077 31.9654 120.143 37.2366C120.225 43.9557 119.913 50.7887 118.979 57.4589ZM101.185 16.8027C99.334 23.473 97.204 32.3071 95.3198 39.0099C93.796 44.3624 92.0592 51.2767 85.4725 51.96C84.4894 52.0576 83.4408 52.139 82.3922 52.1552C81.3436 52.1552 80.2949 52.0576 79.3119 51.96C72.7252 51.2767 70.9884 44.3787 69.4646 39.0099C67.564 32.3071 65.434 23.473 63.5989 16.8027C63.2876 15.6476 63.7627 15.9079 66.1385 15.5988C70.4313 15.0294 76.8214 14.9318 82.3922 14.9968C87.9794 14.948 94.3694 15.0294 98.6459 15.5988C101.038 15.9242 101.513 15.6639 101.185 16.8027ZM94.1564 76.6076C93.6321 76.7052 91.8462 76.6889 89.8636 76.7377C87.3732 76.8028 84.8827 76.8028 82.3758 76.8028C79.8689 76.8028 77.3948 76.8028 74.888 76.7377C72.9218 76.6889 71.1359 76.6889 70.5952 76.6076C70.0709 76.5099 69.5138 76.4774 69.6776 75.8917C69.8415 75.306 72.2337 67.6271 72.2337 67.6271C73.8066 62.5349 73.9213 62.1932 77.9519 61.4123C79.2955 61.152 80.8193 60.9893 82.3758 60.973C83.916 60.973 85.4561 61.152 86.7997 61.4123C90.8303 62.1932 90.945 62.5349 92.518 67.6271C92.518 67.6271 94.9101 75.2898 95.074 75.8917C95.2378 76.4774 94.6808 76.5099 94.1564 76.6076ZM50.2126 71.6618C46.8701 68.0989 46.4441 62.0793 45.8051 57.4752C44.8711 50.8049 44.5598 43.9719 44.6418 37.2528C44.7073 31.9817 44.3141 25.2951 47.6729 20.8374C49.4425 18.4784 52.4081 17.6975 55.1116 16.9329C56.5371 16.9979 55.9636 19.2105 56.0455 20.1053C56.1275 25.4415 56.4224 30.7778 56.6518 36.114C57.4382 48.8201 58.3558 61.4937 60.027 74.1184C60.453 78.1531 51.3759 72.9145 50.2126 71.6618ZM125.615 31.5587C125.32 26.5804 124.583 21.1465 120.864 17.4697C117.472 14.1183 112.589 13.1747 108.034 12.5728C99.4815 11.4177 91.027 11.0923 82.3922 11.0923C73.7411 11.0923 65.3029 11.4014 56.7337 12.5402C52.1787 13.1422 47.2961 14.0858 43.9044 17.4372C40.1851 21.114 39.4478 26.5478 39.1529 31.5262C38.8088 37.3016 39.1037 43.0446 39.4642 48.8038C39.8246 54.4654 40.4636 60.1921 41.8563 65.7073C42.4954 68.2616 43.3801 70.8321 44.8711 73.0446C46.313 75.1596 48.3775 76.6564 50.7041 77.7139C55.6359 79.9427 61.3214 80.1379 66.6465 80.4633C71.8732 80.7887 77.1327 80.9839 82.3922 81.0002C87.6517 80.9677 92.9112 80.7887 98.1379 80.4633C103.463 80.1379 109.148 79.9427 114.08 77.7139C116.407 76.6564 118.471 75.1596 119.913 73.0446C121.404 70.8483 122.289 68.2778 122.928 65.7073C124.321 60.1921 124.96 54.4654 125.32 48.8038C125.681 43.0446 125.976 37.2854 125.632 31.5262L125.615 31.5587Z" fill="#231F20"/>
<path fill-rule="evenodd" clip-rule="evenodd" d="M67.1546 77.2586C67.171 77.161 67.1546 77.2586 67.171 77.161C67.7936 74.5254 68.1049 73.0937 68.7603 70.7347C69.4812 68.1642 70.0711 66.4885 71.005 64.0644C71.5948 62.5351 72.922 60.5178 74.8882 59.7857C76.7724 59.1024 78.3126 58.7119 82.3924 58.7119V60.5015C82.3924 60.6642 82.3924 60.4527 82.3924 61.0546C79.1154 61.0546 77.1329 61.2661 75.5436 62.2748C74.7079 62.8117 73.6921 63.8855 73.0858 65.3659C72.1847 67.5785 71.7423 69.1078 71.0869 71.1902C70.3987 73.4191 70.071 74.5254 69.727 75.8269C69.727 75.8757 69.6778 76.0221 69.6778 76.136C69.6778 76.2011 69.6778 76.2499 69.7106 76.2824C68.9241 76.6404 68.6947 76.7217 68.58 76.7542C68.4326 76.803 68.1049 76.9332 67.7608 77.0471C67.5806 77.1122 67.4167 77.161 67.1382 77.2423L67.1546 77.2586Z" fill="#231F20"/>
<path fill-rule="evenodd" clip-rule="evenodd" d="M61.387 15.0295C62.4192 20.1217 65.0408 31.9655 65.5651 34.3733C66.1058 36.7811 68.9567 47.421 70.5624 50.1054C71.3981 51.5046 72.332 52.497 73.4298 53.2128C75.5434 54.5631 78.3124 54.8234 82.3922 54.8234V51.9764C79.1153 51.9764 77.1327 51.8625 75.5434 50.8375C74.7078 50.3007 73.9869 49.5197 73.2332 48.3809C70.8901 44.8017 69.0223 37.4481 68.0064 33.8202C67.351 31.4449 64.2216 19.178 63.4842 16.2822C62.9272 15.9568 62.665 15.8429 62.4356 15.6477C62.2226 15.485 62.026 15.3874 61.3706 15.0132L61.387 15.0295Z" fill="#231F20"/>
<path fill-rule="evenodd" clip-rule="evenodd" d="M82.3923 54.9536C72.5778 54.9536 70.0218 53.1803 66.1386 36.716C62.2718 20.2518 61.4198 15.0132 61.4198 15.0132C61.4198 15.0132 59.7158 15.2409 58.0118 15.8592C56.3078 16.4774 55.8654 17.242 55.8654 17.242C55.8654 17.242 55.5049 28.8744 57.6022 50.0892C59.683 71.3039 60.109 74.9157 60.109 74.9157C60.109 74.9157 63.4515 76.8679 65.0572 77.0957C66.4827 77.2909 67.1545 77.2584 67.1545 77.2584C67.1545 77.2584 68.1212 72.5892 69.563 68.2128C71.693 61.7703 72.1846 58.7117 82.3923 58.7117V54.9373V54.9536Z" fill="#231F20"/>
<path fill-rule="evenodd" clip-rule="evenodd" d="M82.3924 58.7116C76.2154 58.7116 73.3972 59.9805 71.8898 62.3396C70.9395 63.8363 70.3496 65.8374 69.514 68.3428C68.7112 70.7832 68.662 71.4014 68.2688 72.6053C67.8919 73.8092 67.1382 77.2582 67.1382 77.2582C67.1382 77.2582 64.8607 77.242 63.7466 76.884C61.7804 76.2495 61.0595 75.9567 59.8962 75.3222C59.8962 75.3222 60.1092 75.1107 60.0764 74.8504C59.8962 72.9307 58.3232 57.6703 58.1594 55.9946C57.8481 52.8385 58.0447 54.9046 57.5859 50.089C56.9141 43.3211 56.5045 37.5293 56.2424 32.7788C55.6853 22.6432 55.8491 17.2419 55.8491 17.2419C55.8491 17.2419 56.2424 16.5748 57.6842 15.9729C57.9464 15.8753 60.0436 14.9642 60.0928 15.4197C60.1256 15.7939 60.2566 16.8514 60.6007 18.885C61.125 22.0087 62.1736 27.4263 64.2217 36.1465C64.2709 36.3254 64.3037 36.5206 64.3528 36.6996C66.2862 45.0293 66.3845 49.6009 68.5965 52.6595C69.4976 53.8959 70.3496 54.7907 71.3163 55.474C73.6102 57.0521 76.5594 58.0771 82.376 58.7116H82.3924Z" fill="#231F20"/>
<path fill-rule="evenodd" clip-rule="evenodd" d="M39.7754 27.8168C39.7754 27.8168 40.7913 18.0229 48.4266 15.4198C58.6834 11.922 70.759 12.3125 82.4085 12.3125V11.0923C78.6728 11.0923 56.5206 11.1411 47.7057 14.8179C39.841 18.088 39.5952 27.768 39.5952 27.768C39.5952 27.768 39.5952 27.768 39.7918 27.8168H39.7754Z" fill="#231F20"/>
<path d="M67.3345 76.3638V77.8605H82.3921V76.3638H67.3345Z" fill="#231F20"/>
<path fill-rule="evenodd" clip-rule="evenodd" d="M67.3345 77.2911C67.7605 77.1447 68.3503 76.982 68.7272 76.8356C69.0713 76.7054 69.4317 76.5265 69.8086 76.3638C69.9888 76.4939 70.2182 76.5102 70.4312 76.5265C71.0047 76.5915 72.3974 76.6729 75.4941 76.738C79.6722 76.8193 82.3921 76.8193 82.3921 76.8193V77.8117C82.3921 77.8117 79.0659 77.8605 74.5274 77.6978C71.316 77.5839 70.9555 77.5677 70.0871 77.5189C69.7266 77.5189 67.3509 77.2911 67.3509 77.2911H67.3345Z" fill="#231F20"/>
<path fill-rule="evenodd" clip-rule="evenodd" d="M46.7388 69.7097C47.0173 70.4581 48.4756 72.6869 50.0321 73.9396C53.4074 76.6566 60.7641 77.9906 63.8444 77.7303C64.2213 77.6978 65.9417 77.7628 66.2202 77.6815C65.0897 77.5513 63.3529 77.0795 61.5014 76.2498C61.0099 76.0221 60.2889 75.6804 59.8302 75.4201C59.7319 75.5177 59.568 75.5828 59.3386 75.6153C58.4866 75.7292 53.0469 74.7856 50.9005 72.3778C50.2779 71.6782 49.1473 70.5882 48.4428 69.0752C48.1642 69.1891 47.8693 69.2867 47.5908 69.4006C47.3122 69.5145 47.0173 69.6121 46.7388 69.726V69.7097Z" fill="#231F20"/>
<path fill-rule="evenodd" clip-rule="evenodd" d="M63.5169 16.168C63.5169 16.168 63.5169 15.9891 63.6807 15.9403C63.8774 15.8752 64.2378 15.8101 65.0079 15.6962C66.0401 15.5661 67.8097 15.4034 70.8245 15.3058C77.5095 15.0943 82.1463 15.0455 82.3921 15.0455V14.2808C82.3921 14.2808 75.3794 14.1507 70.3493 14.3622C65.7125 14.5574 62.796 14.6876 61.649 14.8665C61.4524 14.8991 61.436 14.9479 61.436 14.9479C61.944 15.2407 61.9603 15.2407 62.1078 15.322C62.2717 15.4197 62.8943 15.7938 63.5333 16.168H63.5169Z" fill="#231F20"/>
<path fill-rule="evenodd" clip-rule="evenodd" d="M45.707 21.293C45.7561 21.1954 48.2794 18.3808 50.9829 17.486C51.884 17.1932 54.8497 16.4123 55.7344 16.6075C55.9802 16.6563 55.9474 16.7702 55.9474 16.8515C56.6848 16.3147 57.0616 16.0544 57.291 15.9567C58.143 15.6151 58.3068 15.4687 61.1414 14.9155C61.0103 14.9155 60.6171 14.9481 60.4369 14.9643C58.7492 15.0457 54.8988 15.55 50.7862 17.063C47.6404 18.2181 45.6578 21.1466 45.5923 21.2442C45.5923 21.2442 45.6251 21.2604 45.6414 21.2767C45.6578 21.2767 45.6742 21.293 45.6906 21.3092L45.707 21.293Z" fill="#231F20"/>
<path fill-rule="evenodd" clip-rule="evenodd" d="M97.6299 77.2586C97.6135 77.161 97.6299 77.2586 97.6135 77.161C96.9909 74.5254 96.6796 73.0937 96.0242 70.7347C95.3033 68.1642 94.7134 66.4885 93.7795 64.0644C93.1896 62.5351 91.8789 60.5178 89.8963 59.7857C88.0121 59.1024 86.4883 58.7119 82.3921 58.7119V60.5015C82.3921 60.6642 82.3921 60.4527 82.3921 61.0546C85.669 61.0546 87.6516 61.2661 89.2409 62.2748C90.0765 62.8117 91.0924 63.8855 91.6986 65.3659C92.5998 67.5785 93.0422 69.1078 93.6976 71.1902C94.3857 73.4191 94.7134 74.5254 95.0575 75.8269C95.0575 75.8757 95.1066 76.0221 95.1066 76.136C95.1066 76.2011 95.1066 76.2499 95.0739 76.2824C95.8603 76.6404 96.0897 76.7217 96.2044 76.7542C96.3519 76.803 96.6796 76.9332 97.0237 77.0471C97.2039 77.1122 97.3677 77.161 97.6463 77.2423L97.6299 77.2586Z" fill="#231F20"/>
<path fill-rule="evenodd" clip-rule="evenodd" d="M103.397 15.0295C102.365 20.1217 99.7599 31.9655 99.2192 34.3733C98.6785 36.7811 95.8276 47.421 94.2219 50.1054C93.3862 51.5046 92.4523 52.497 91.3545 53.2128C89.2409 54.5631 86.4719 54.8234 82.3921 54.8234V51.9764C85.669 51.9764 87.6516 51.8625 89.2409 50.8375C90.0765 50.3007 90.7975 49.5197 91.5512 48.3809C93.8942 44.8017 95.762 37.4481 96.7779 33.8202C97.4333 31.4449 100.563 19.178 101.3 16.2822C101.857 15.9568 102.119 15.8429 102.365 15.6477C102.578 15.485 102.775 15.3874 103.414 15.0132L103.397 15.0295Z" fill="#231F20"/>
<path fill-rule="evenodd" clip-rule="evenodd" d="M82.3921 54.9536C92.2065 54.9536 94.7626 53.1803 98.6457 36.716C102.529 20.2518 103.381 15.0132 103.381 15.0132C103.381 15.0132 105.085 15.2409 106.789 15.8592C108.493 16.4774 108.935 17.242 108.935 17.242C108.935 17.242 109.296 28.8744 107.199 50.0892C105.118 71.3039 104.692 74.9157 104.692 74.9157C104.692 74.9157 101.349 76.8679 99.7435 77.0957C98.3181 77.2909 97.6463 77.2584 97.6463 77.2584C97.6463 77.2584 96.6796 72.5892 95.2377 68.2128C93.1077 61.7703 92.6162 58.7117 82.4085 58.7117V54.9373L82.3921 54.9536Z" fill="#231F20"/>
<path fill-rule="evenodd" clip-rule="evenodd" d="M82.3921 58.7116C88.5691 58.7116 91.3873 59.9805 92.8947 62.3396C93.845 63.8363 94.4349 65.8374 95.2705 68.3428C96.0733 70.7832 96.1225 71.4014 96.5157 72.6053C96.8926 73.8092 97.6463 77.2582 97.6463 77.2582C97.6463 77.2582 99.9238 77.242 101.022 76.884C102.988 76.2495 103.709 75.9567 104.872 75.3222C104.872 75.3222 104.675 75.1107 104.692 74.8504C104.872 72.9307 106.445 57.6703 106.609 55.9946C106.92 52.8385 106.723 54.9046 107.182 50.089C107.854 43.3211 108.264 37.5293 108.526 32.7788C109.083 22.6432 108.919 17.2419 108.919 17.2419C108.919 17.2419 108.542 16.5748 107.084 15.9729C106.822 15.8753 104.724 14.9642 104.675 15.4197C104.643 15.7939 104.511 16.8514 104.167 18.885C103.643 22.0087 102.594 27.4263 100.546 36.1465C100.497 36.3254 100.464 36.5206 100.415 36.6996C98.4819 45.0293 98.3836 49.6009 96.1717 52.6595C95.2705 53.8959 94.4185 54.7907 93.4518 55.474C91.1579 57.0521 88.2087 58.0771 82.3921 58.7116Z" fill="#231F20"/>
<path d="M82.3921 76.3638V77.8605H97.4333V76.3638H82.3921Z" fill="#231F20"/>
<path fill-rule="evenodd" clip-rule="evenodd" d="M97.4333 77.2911C97.0237 77.1447 96.4175 76.982 96.0406 76.8356C95.6965 76.7054 95.3361 76.5265 94.9592 76.3638C94.779 76.4939 94.5496 76.5102 94.3366 76.5265C93.7631 76.5915 92.3704 76.6729 89.2573 76.738C85.0792 76.8193 82.3594 76.8193 82.3594 76.8193V77.8117C82.3594 77.8117 85.6855 77.8605 90.224 77.6978C93.4355 77.5839 93.7959 77.5677 94.6643 77.5189C95.0248 77.5189 97.4006 77.2911 97.4006 77.2911H97.4333Z" fill="#231F20"/>
<path fill-rule="evenodd" clip-rule="evenodd" d="M118.029 69.7097C117.75 70.4581 116.292 72.6869 114.735 73.9396C111.36 76.6566 104.003 77.9906 100.923 77.7303C100.546 77.6978 98.8259 77.7628 98.5474 77.6815C99.6943 77.5513 101.415 77.0795 103.266 76.2498C103.758 76.0221 104.462 75.6804 104.937 75.4201C105.036 75.5177 105.2 75.5828 105.429 75.6153C106.281 75.7292 111.721 74.7856 113.867 72.3778C114.49 71.6782 115.62 70.5882 116.325 69.0752C116.603 69.1891 116.898 69.2867 117.177 69.4006C117.455 69.5145 117.75 69.6121 118.029 69.726V69.7097Z" fill="#231F20"/>
<path fill-rule="evenodd" clip-rule="evenodd" d="M116.423 68.8633C116.571 68.5379 117.275 66.4067 117.619 64.9262C117.701 64.5683 118.357 61.0704 118.471 60.4197C118.881 58.5488 119.372 55.3926 119.716 51.7808C120.405 44.6062 120.831 36.488 120.831 33.9175C120.913 34.2754 120.978 38.2288 121.011 38.7656C121.027 39.091 121.044 41.2223 121.044 41.629C121.044 51.9273 118.815 67.8058 116.407 68.8633H116.423Z" fill="#231F20"/>
<path fill-rule="evenodd" clip-rule="evenodd" d="M101.267 16.168C101.267 16.168 101.267 15.9891 101.103 15.9403C100.907 15.8752 100.546 15.8101 99.7763 15.6962C98.7441 15.5661 96.9745 15.4034 93.9597 15.3058C87.2747 15.0943 82.6379 15.0455 82.3921 15.0455V14.2808C82.3921 14.2808 89.4048 14.1507 94.4349 14.3622C99.0718 14.5574 101.988 14.6876 103.135 14.8665C103.332 14.8991 103.348 14.9479 103.348 14.9479C102.84 15.2407 102.824 15.2407 102.676 15.322C102.513 15.4197 101.89 15.7938 101.251 16.168H101.267Z" fill="#231F20"/>
<path fill-rule="evenodd" clip-rule="evenodd" d="M33.2069 127.354C33.1715 126.897 33.1361 126.633 33.1361 126.194V117.339C33.1361 116.812 32.9592 115.969 34.0208 115.811L36.6219 115.547V113.492H22.7674V115.547C23.3513 115.547 24.9791 115.741 25.4392 115.916C25.7046 116.022 26.2531 116.215 26.2531 117.357V120.519H15.2474V117.216C15.2474 116.795 15.3358 116.127 16.1144 115.864C16.5921 115.688 18.0961 115.635 18.8039 115.565V113.509H4.77246V115.565C5.78102 115.67 6.61265 115.67 7.56813 115.881C8.38206 116.074 8.32898 116.935 8.32898 117.41V126.563C8.31128 127.459 8.31128 127.266 8.31128 127.266C8.31128 128.074 7.49735 128.32 6.91345 128.338L4.79016 128.496V130.551H18.8039V128.496C18.3615 128.496 16.9814 128.302 16.3798 128.232C15.2651 128.074 15.2474 127.406 15.2474 126.792V123.77H26.2531V126.37C26.2531 126.932 26.5008 127.986 25.2976 128.179C24.2714 128.338 23.1389 128.496 22.7674 128.496V130.551H36.7103V128.496C35.8787 128.408 35.5779 128.408 34.0031 128.179C33.5254 128.109 33.2777 127.74 33.2423 127.406L33.2069 127.354Z" fill="#E5504A"/>
<path fill-rule="evenodd" clip-rule="evenodd" d="M61.9242 115.161C59.1462 113.351 55.4482 113 51.5555 113C48.1228 113 44.0355 113.527 41.5937 115.073C38.8688 116.795 37.5063 119.711 37.5063 122.154C37.5063 124.367 39.0103 127.319 41.346 128.935C43.8231 130.657 47.6982 131.149 51.3431 131.149C55.2181 131.149 58.757 130.885 61.6057 129.146C64.2421 127.565 65.8523 124.859 65.7992 122.083C65.7638 119.342 64.4368 116.865 61.9242 115.161ZM45.4333 123.858C44.8848 121.732 45.3625 119.501 46.5834 118.095C48.6182 115.495 54.6696 115.671 56.616 118.2C58.1731 120.028 58.1731 122.891 57.1291 125.228C55.9082 127.53 53.4841 128.004 50.4584 127.899C47.8397 127.653 46.1057 126.44 45.4333 123.875V123.858Z" fill="#E5504A"/>
<path fill-rule="evenodd" clip-rule="evenodd" d="M86.4837 113.422V115.548C89.5802 115.565 89.9164 116.303 89.9164 118.236V126.476L79.7246 113.404H66.9141V115.46C68.4888 115.46 70.4352 116.057 70.4352 118.166V125.72C70.2936 127.776 70.3998 128.373 67.0025 128.461V130.517H77.7075V128.461C74.3633 128.408 74.3987 127.424 74.3987 125.439V117.797L84.3428 130.692H93.9153V119.167C93.9153 118.482 93.8976 117.674 94.0745 117.006C94.4461 115.671 95.5785 115.636 97.401 115.477V113.422H86.466H86.4837Z" fill="#E5504A"/>
<path fill-rule="evenodd" clip-rule="evenodd" d="M124.42 115.636C123.358 114.898 121.943 114.423 120.492 114.037C118.652 113.545 116.121 113.492 114.263 113.475H110.866L98.8341 113.492V115.548L101.187 115.776C101.807 115.917 102.231 116.374 102.214 117.234V127.056C102.214 127.056 102.125 127.916 101.453 128.18C100.78 128.443 99.8073 128.479 98.8164 128.479V130.534H111.485C113.255 130.517 117.112 130.622 119.536 130.218C122.208 129.779 124.915 128.461 126.065 126.774C127.516 124.631 127.675 123.313 127.675 121.82C127.675 119.571 126.791 117.34 124.42 115.636ZM119.572 121.75C119.695 124.262 119.271 127.706 113.679 127.424H108.654V116.76H113.909C115.803 116.76 116.847 116.988 117.979 117.849C119.253 118.833 119.501 120.274 119.572 121.732V121.75Z" fill="#E5504A"/>
<path fill-rule="evenodd" clip-rule="evenodd" d="M132.453 113.439V115.636C132.453 115.636 137.567 115.267 135.337 118.587L131.25 125.246C129.958 127.284 129.569 128.461 126.331 128.479V130.534H137.408V128.479C135.904 128.373 133.692 128.11 134.93 126.212C134.93 126.212 135.514 125.369 135.497 125.334H146.361L146.998 126.212C148.785 128.795 144.414 128.479 144.414 128.479V130.534H159.207V128.479C156.765 128.426 156.269 128.057 155.385 126.704L146.131 113.422H132.436L132.453 113.439ZM137.054 122.47L140.787 116.69L144.627 122.47H137.054Z" fill="#E5504A"/>
</svg>
