<svg width="24" height="24" viewBox="0 0 24 24" fill="none" xmlns="http://www.w3.org/2000/svg">
<rect width="24" height="24" rx="6" fill="url(#paint0_linear_443_3090)"/>
<path d="M9.89161 12.0729C9.89161 10.8666 10.8698 9.88845 12.0769 9.88845C13.2839 9.88845 14.2627 10.8666 14.2627 12.0729C14.2627 13.2793 13.2839 14.2574 12.0769 14.2574C10.8698 14.2574 9.89161 13.2793 9.89161 12.0729ZM8.71001 12.0729C8.71001 13.9314 10.2174 15.4378 12.0769 15.4378C13.9364 15.4378 15.4438 13.9314 15.4438 12.0729C15.4438 10.2145 13.9364 8.70809 12.0769 8.70809C10.2174 8.70809 8.71001 10.2145 8.71001 12.0729ZM14.7902 8.57467C14.7902 8.73019 14.8363 8.88225 14.9227 9.0116C15.0091 9.14095 15.1319 9.24178 15.2757 9.30136C15.4194 9.36093 15.5776 9.37657 15.7302 9.34629C15.8829 9.31601 16.0231 9.24117 16.1332 9.13124C16.2433 9.02131 16.3183 8.88123 16.3487 8.7287C16.3791 8.57617 16.3636 8.41806 16.3041 8.27435C16.2446 8.13064 16.1438 8.00778 16.0145 7.92133C15.8851 7.83487 15.733 7.78869 15.5774 7.78863H15.5771C15.3685 7.78873 15.1684 7.87156 15.0209 8.01894C14.8734 8.16632 14.7904 8.3662 14.7902 8.57467ZM9.42791 17.4069C8.78864 17.3778 8.44117 17.2714 8.21027 17.1815C7.90414 17.0624 7.68572 16.9205 7.45607 16.6913C7.22642 16.4621 7.08427 16.244 6.96561 15.9381C6.8756 15.7074 6.76912 15.3601 6.74006 14.7212C6.70827 14.0304 6.70192 13.823 6.70192 12.073C6.70192 10.323 6.70879 10.1161 6.74006 9.42482C6.76917 8.78593 6.87644 8.43926 6.96561 8.20791C7.08479 7.90197 7.22673 7.68368 7.45607 7.45417C7.6854 7.22466 7.90361 7.08259 8.21027 6.964C8.44107 6.87405 8.78864 6.76763 9.42791 6.73858C10.1191 6.70681 10.3267 6.70047 12.0769 6.70047C13.8271 6.70047 14.0349 6.70734 14.7267 6.73858C15.3659 6.76768 15.7128 6.87488 15.9443 6.964C16.2504 7.08259 16.4688 7.22497 16.6985 7.45417C16.9281 7.68336 17.0698 7.90197 17.1889 8.20791C17.279 8.43858 17.3854 8.78593 17.4145 9.42482C17.4463 10.1161 17.4526 10.323 17.4526 12.073C17.4526 13.823 17.4463 14.0299 17.4145 14.7212C17.3854 15.3601 17.2784 15.7073 17.1889 15.9381C17.0698 16.244 16.9278 16.4623 16.6985 16.6913C16.4692 16.9203 16.2504 17.0624 15.9443 17.1815C15.7135 17.2714 15.3659 17.3778 14.7267 17.4069C14.0355 17.4387 13.8279 17.445 12.0769 17.445C10.3259 17.445 10.1188 17.4387 9.42791 17.4069ZM9.37362 5.55968C8.6756 5.59145 8.19862 5.70206 7.78208 5.86405C7.35069 6.03134 6.98549 6.25576 6.62056 6.6199C6.25563 6.98403 6.03165 7.34958 5.86427 7.78071C5.70218 8.19727 5.5915 8.6737 5.55971 9.3713C5.5274 10.07 5.52 10.2934 5.52 12.0729C5.52 13.8525 5.5274 14.0759 5.55971 14.7746C5.5915 15.4723 5.70218 15.9486 5.86427 16.3652C6.03165 16.7961 6.25569 17.162 6.62056 17.526C6.98544 17.89 7.35069 18.1141 7.78208 18.2818C8.19941 18.4438 8.6756 18.5544 9.37362 18.5862C10.0731 18.618 10.2962 18.6259 12.0769 18.6259C13.8575 18.6259 14.081 18.6185 14.7802 18.5862C15.4782 18.5544 15.9549 18.4438 16.3717 18.2818C16.8028 18.1141 17.1683 17.8901 17.5332 17.526C17.8981 17.1619 18.1217 16.7961 18.2895 16.3652C18.4516 15.9486 18.5628 15.4722 18.5941 14.7746C18.6258 14.0754 18.6332 13.8525 18.6332 12.0729C18.6332 10.2934 18.6258 10.07 18.5941 9.3713C18.5623 8.67364 18.4516 8.19701 18.2895 7.78071C18.1217 7.34984 17.8976 6.98461 17.5332 6.6199C17.1689 6.25519 16.8028 6.03134 16.3722 5.86405C15.9549 5.70206 15.4782 5.59093 14.7807 5.55968C14.0816 5.52791 13.8581 5.52 12.0774 5.52C10.2968 5.52 10.0731 5.52739 9.37362 5.55968Z" fill="white"/>
<path d="M9.89161 12.0729C9.89161 10.8666 10.8698 9.88845 12.0769 9.88845C13.2839 9.88845 14.2627 10.8666 14.2627 12.0729C14.2627 13.2793 13.2839 14.2574 12.0769 14.2574C10.8698 14.2574 9.89161 13.2793 9.89161 12.0729ZM8.71001 12.0729C8.71001 13.9314 10.2174 15.4378 12.0769 15.4378C13.9364 15.4378 15.4438 13.9314 15.4438 12.0729C15.4438 10.2145 13.9364 8.70809 12.0769 8.70809C10.2174 8.70809 8.71001 10.2145 8.71001 12.0729ZM14.7902 8.57467C14.7902 8.73019 14.8363 8.88225 14.9227 9.0116C15.0091 9.14095 15.1319 9.24178 15.2757 9.30136C15.4194 9.36093 15.5776 9.37657 15.7302 9.34629C15.8829 9.31601 16.0231 9.24117 16.1332 9.13124C16.2433 9.02131 16.3183 8.88123 16.3487 8.7287C16.3791 8.57617 16.3636 8.41806 16.3041 8.27435C16.2446 8.13064 16.1438 8.00778 16.0145 7.92133C15.8851 7.83487 15.733 7.78869 15.5774 7.78863H15.5771C15.3685 7.78873 15.1684 7.87156 15.0209 8.01894C14.8734 8.16632 14.7904 8.3662 14.7902 8.57467ZM9.42791 17.4069C8.78864 17.3778 8.44117 17.2714 8.21027 17.1815C7.90414 17.0624 7.68572 16.9205 7.45607 16.6913C7.22642 16.4621 7.08427 16.244 6.96561 15.9381C6.8756 15.7074 6.76912 15.3601 6.74006 14.7212C6.70827 14.0304 6.70192 13.823 6.70192 12.073C6.70192 10.323 6.70879 10.1161 6.74006 9.42482C6.76917 8.78593 6.87644 8.43926 6.96561 8.20791C7.08479 7.90197 7.22673 7.68368 7.45607 7.45417C7.6854 7.22466 7.90361 7.08259 8.21027 6.964C8.44107 6.87405 8.78864 6.76763 9.42791 6.73858C10.1191 6.70681 10.3267 6.70047 12.0769 6.70047C13.8271 6.70047 14.0349 6.70734 14.7267 6.73858C15.3659 6.76768 15.7128 6.87488 15.9443 6.964C16.2504 7.08259 16.4688 7.22497 16.6985 7.45417C16.9281 7.68336 17.0698 7.90197 17.1889 8.20791C17.279 8.43858 17.3854 8.78593 17.4145 9.42482C17.4463 10.1161 17.4526 10.323 17.4526 12.073C17.4526 13.823 17.4463 14.0299 17.4145 14.7212C17.3854 15.3601 17.2784 15.7073 17.1889 15.9381C17.0698 16.244 16.9278 16.4623 16.6985 16.6913C16.4692 16.9203 16.2504 17.0624 15.9443 17.1815C15.7135 17.2714 15.3659 17.3778 14.7267 17.4069C14.0355 17.4387 13.8279 17.445 12.0769 17.445C10.3259 17.445 10.1188 17.4387 9.42791 17.4069ZM9.37362 5.55968C8.6756 5.59145 8.19862 5.70206 7.78208 5.86405C7.35069 6.03134 6.98549 6.25576 6.62056 6.6199C6.25563 6.98403 6.03165 7.34958 5.86427 7.78071C5.70218 8.19727 5.5915 8.6737 5.55971 9.3713C5.5274 10.07 5.52 10.2934 5.52 12.0729C5.52 13.8525 5.5274 14.0759 5.55971 14.7746C5.5915 15.4723 5.70218 15.9486 5.86427 16.3652C6.03165 16.7961 6.25569 17.162 6.62056 17.526C6.98544 17.89 7.35069 18.1141 7.78208 18.2818C8.19941 18.4438 8.6756 18.5544 9.37362 18.5862C10.0731 18.618 10.2962 18.6259 12.0769 18.6259C13.8575 18.6259 14.081 18.6185 14.7802 18.5862C15.4782 18.5544 15.9549 18.4438 16.3717 18.2818C16.8028 18.1141 17.1683 17.8901 17.5332 17.526C17.8981 17.1619 18.1217 16.7961 18.2895 16.3652C18.4516 15.9486 18.5628 15.4722 18.5941 14.7746C18.6258 14.0754 18.6332 13.8525 18.6332 12.0729C18.6332 10.2934 18.6258 10.07 18.5941 9.3713C18.5623 8.67364 18.4516 8.19701 18.2895 7.78071C18.1217 7.34984 17.8976 6.98461 17.5332 6.6199C17.1689 6.25519 16.8028 6.03134 16.3722 5.86405C15.9549 5.70206 15.4782 5.59093 14.7807 5.55968C14.0816 5.52791 13.8581 5.52 12.0774 5.52C10.2968 5.52 10.0731 5.52739 9.37362 5.55968Z" fill="white"/>
<defs>
<linearGradient id="paint0_linear_443_3090" x1="23.5387" y1="24" x2="-0.461279" y2="-6.46012e-07" gradientUnits="userSpaceOnUse">
<stop stop-color="#FBE18A"/>
<stop offset="0.21" stop-color="#FCBB45"/>
<stop offset="0.38" stop-color="#F75274"/>
<stop offset="0.52" stop-color="#D53692"/>
<stop offset="0.74" stop-color="#8F39CE"/>
<stop offset="1" stop-color="#5B4FE9"/>
</linearGradient>
</defs>
</svg>
