<svg width="140" height="140" viewBox="0 0 140 140" fill="none" xmlns="http://www.w3.org/2000/svg">
<path d="M16 47.7185C16 66.5125 40.378 81.8043 70.3378 81.8043C100.298 81.8043 124.676 66.5125 124.676 47.7185C124.676 28.9246 100.298 13.6328 70.3378 13.6328C40.378 13.6328 16 28.9204 16 47.7185ZM17.6674 47.7185C17.6674 29.8482 41.2951 15.3087 70.3378 15.3087C99.3805 15.3087 123.008 29.8482 123.008 47.7185C123.008 65.5889 99.3805 80.1326 70.3378 80.1326C41.2951 80.1326 17.6674 65.5931 17.6674 47.7185Z" fill="black"/>
<path d="M65.2023 19.8305C52.4839 20.6079 43.2462 23.9889 41.6747 28.4397C41.5121 28.9036 41.4287 29.3717 41.4287 29.8356C41.4287 30.5878 41.6413 31.3359 42.0623 32.0547C43.8257 35.068 49.3074 37.5546 57.1027 38.892L57.9281 39.0257L58.0656 38.1982C59.3454 30.3705 62.155 24.2187 65.7776 21.31L67.8285 19.6592L65.2023 19.8222V19.8305ZM43.5005 31.2147C43.2295 30.7508 43.0962 30.2953 43.0962 29.8439C43.0962 29.5598 43.1462 29.2839 43.2462 28.9997C44.4468 25.5979 52.6131 22.6264 63.0429 21.6694C60.0666 25.042 57.7822 30.4792 56.5858 37.0865C49.8076 35.8286 44.9345 33.6637 43.5005 31.2147Z" fill="black"/>
<path d="M62.876 38.6996L62.7134 39.6107L63.6346 39.6818C65.8148 39.8447 68.07 39.9325 70.3336 39.9325C72.5972 39.9325 74.8565 39.8447 77.0367 39.6818L77.9538 39.6107L77.7912 38.6996C76.5365 31.6368 73.7477 27.4199 70.3336 27.4199C66.9195 27.4199 64.1265 31.6368 62.876 38.6996ZM70.3336 29.0916C72.668 29.0916 74.8232 32.5938 75.9571 38.0644C74.1104 38.1856 72.2345 38.2608 70.3336 38.2608C68.4327 38.2608 66.5568 38.1856 64.7143 38.0644C65.844 32.5938 68.0033 29.0916 70.3378 29.0916H70.3336Z" fill="black"/>
<path d="M74.8942 21.3141C78.5125 24.2187 81.3263 30.3746 82.6061 38.2023L82.7437 39.0298L83.5691 38.8961C91.3685 37.5629 96.8502 35.0763 98.6094 32.0589C99.2931 30.9012 99.4223 29.6475 99.0013 28.4397C97.4255 23.9888 88.1879 20.6078 75.4736 19.8305L72.8516 19.6675L74.8984 21.3183L74.8942 21.3141ZM77.633 21.6693C88.0586 22.6264 96.225 25.602 97.4213 28.9997C97.5256 29.2839 97.5756 29.5597 97.5756 29.8439C97.5756 30.2952 97.438 30.7508 97.1754 31.2147C95.7372 33.6637 90.8641 35.8285 84.0901 37.0865C82.8979 30.4833 80.6135 25.0461 77.6371 21.6693H77.633Z" fill="black"/>
<path d="M33.6251 31.7205C27.9099 36.5182 24.8877 42.2228 24.8877 48.2117C24.8877 62.304 42.029 74.219 64.7563 75.9157L67.295 76.108L65.3607 74.453C60.3792 70.1818 57.2903 60.0514 57.2903 48.0069L57.3403 45.1608L56.6442 45.0187C44.6886 42.8706 36.1846 37.8305 34.9716 32.1885L34.6798 30.8345L33.6168 31.7205H33.6251ZM26.5593 48.2117C26.5593 43.0754 29.0605 38.1439 33.7502 33.8644C35.9387 39.5649 44.105 44.3166 55.652 46.5274C55.6354 47.1794 55.6228 48.0069 55.6228 48.0069C55.6228 59.1738 58.2657 68.8152 62.6261 74.0184C41.9165 71.8034 26.5551 60.9583 26.5551 48.2117H26.5593Z" fill="black"/>
<path d="M62.1963 46.707V47.0121C62.1922 58.204 65.6938 66.6502 70.3335 66.6502C74.9731 66.6502 78.4747 58.204 78.4747 47.0121L78.4622 45.8043L77.566 45.8795C75.2066 46.0884 72.7721 46.1887 70.3293 46.1887C67.8865 46.1887 65.452 46.0843 63.0967 45.8795L62.1963 45.7959L62.188 46.707H62.1963ZM76.799 47.6055C76.6739 58.0201 73.4015 64.9785 70.3335 64.9785C67.2654 64.9785 63.993 58.0201 63.8679 47.6055C65.9898 47.7601 68.1533 47.8604 70.3335 47.8604C72.5136 47.8604 74.673 47.7643 76.799 47.6055Z" fill="black"/>
<path d="M105.692 32.1883C104.483 37.8303 95.9748 42.8704 84.0234 45.0185L83.323 45.1481L83.3772 48.0025C83.3772 60.047 80.2841 70.1774 75.3068 74.4486L73.3726 76.1036L75.9071 75.9113C98.6385 74.2146 115.78 62.2996 115.78 48.2073C115.78 42.2185 112.758 36.5138 107.042 31.7161L105.984 30.8301L105.692 32.1841V32.1883ZM106.917 33.8642C111.615 38.1479 114.117 43.0752 114.117 48.2115C114.117 60.9581 98.7552 71.799 78.0456 74.0181C82.4059 68.815 85.0488 59.1735 85.0488 48.0067C85.0488 48.0067 85.0322 47.1792 85.0197 46.5272C96.5625 44.3164 104.733 39.5646 106.922 33.8642H106.917Z" fill="black"/>
<path d="M106.284 27.8841C106.359 28.0972 106.43 28.3145 106.484 28.5319C106.797 29.7856 106.734 31.0143 106.326 32.2096C111.749 36.6939 114.946 42.223 114.946 48.2118C114.946 63.1651 94.9744 75.289 70.3379 75.289C45.7015 75.289 25.7255 63.1651 25.7255 48.2118C25.7255 42.2272 28.927 36.6897 34.342 32.2096C33.9377 31.0101 33.8751 29.7814 34.1878 28.5319C34.2461 28.3104 34.3378 28.0763 34.4462 27.8423C27.0469 33.1248 22.5615 40.054 22.5615 47.6393C22.5615 64.2015 43.9507 77.6293 70.3379 77.6293C96.7252 77.6293 118.114 64.2057 118.114 47.6393C118.114 40.0707 113.646 33.1583 106.288 27.8883L106.284 27.8841Z" fill="url(#paint0_linear_19_331)"/>
<path d="M76.9745 38.846C74.8694 39.0048 72.6475 39.0926 70.3339 39.0926C68.0203 39.0926 65.8026 39.0048 63.6975 38.846H63.6891L62.3135 39.849C64.8522 40.0705 67.5326 40.1959 70.3339 40.1959C73.1352 40.1959 75.8156 40.0705 78.3543 39.849L76.9703 38.846H76.9745ZM101.378 28.3394C99.7018 22.7811 85.8745 18.7021 70.3381 18.7021C54.8017 18.7021 40.9786 22.7852 39.2986 28.3394C37.8438 33.1623 45.7891 37.6215 58.3241 39.3935L57.2361 38.0645C47.0939 36.3343 41.0661 32.644 42.4584 28.7197C44.1425 23.9596 56.3857 20.5076 70.3339 20.5076C84.2821 20.5076 96.5294 23.9554 98.2136 28.7197C99.6017 32.644 93.5781 36.3301 83.4317 38.0645L82.3437 39.3935C94.8745 37.6257 102.828 33.1623 101.373 28.3394H101.378Z" fill="url(#paint1_linear_19_331)"/>
<path d="M63.7138 38.8459C64.8768 32.3597 67.403 28.3059 70.3335 28.3059C73.2641 28.3059 75.7903 32.3597 76.9575 38.8459H76.9783L78.3414 39.8363C77.1909 31.2689 74.0436 25.7983 70.3377 25.7983C66.6318 25.7983 63.4804 31.2731 62.334 39.8363L63.6971 38.8459H63.718H63.7138Z" fill="url(#paint2_linear_19_331)"/>
<path d="M78.7542 44.6929L77.6412 46.7114C77.6412 46.8577 77.6495 47.0082 77.6495 47.1628C77.6495 57.9159 74.3688 66.0654 70.3378 66.0654C66.3068 66.0654 63.0261 57.9117 63.0261 47.1628C63.0261 46.9914 63.0261 46.8243 63.0344 46.6613L61.9172 44.6929C61.8839 45.4995 61.8672 46.3144 61.8672 47.1544C61.8672 59.3452 65.6565 68.5771 70.3378 68.5771C75.0191 68.5771 78.8084 59.3452 78.8084 47.1544C78.8084 46.3186 78.7876 45.4995 78.7542 44.6929Z" fill="url(#paint3_linear_19_331)"/>
<path d="M58.3446 39.3976C59.9454 27.491 64.7101 18.7021 70.3377 18.7021C64.3057 18.7021 59.1617 26.488 57.2524 38.0854L58.3279 39.3976H58.3446Z" fill="url(#paint4_linear_19_331)"/>
<path d="M82.331 39.3976H82.3435L83.419 38.0854C81.5139 26.488 76.3699 18.7021 70.3379 18.7021C75.9655 18.7021 80.7302 27.491 82.331 39.3976Z" fill="url(#paint5_linear_19_331)"/>
<path d="M84.1649 45.8336L82.7976 44.1953H82.7851C82.8602 45.495 82.906 46.8199 82.906 48.1614C82.906 64.4311 77.2784 77.6249 70.3335 77.6249C78.1163 77.6249 84.2066 65.3923 84.2066 48.1614C84.2066 47.3715 84.19 46.5984 84.1608 45.8336H84.1649Z" fill="url(#paint6_linear_19_331)"/>
<path d="M57.7696 48.1658C57.7696 46.8243 57.8155 45.4994 57.8905 44.1997H57.8822L56.5107 45.8338C56.4815 46.6069 56.4648 47.3801 56.4648 48.1658C56.4648 65.3925 62.5594 77.6293 70.3421 77.6293C63.4056 77.6293 57.7738 64.4397 57.7738 48.1658H57.7696Z" fill="url(#paint7_linear_19_331)"/>
<path d="M106.325 32.2093C108.397 33.9228 110.148 35.7951 111.515 37.7802C111.032 34.5496 109.744 31.5782 107.868 29.079C107.351 28.6695 106.826 28.2683 106.284 27.8838C106.359 28.0969 106.43 28.3143 106.484 28.5316C106.796 29.7853 106.734 31.014 106.325 32.2093Z" fill="#2D2F34"/>
<path d="M34.342 32.2096C33.9376 31.0101 33.8751 29.7814 34.1878 28.5319C34.2461 28.3104 34.3378 28.0763 34.4462 27.8423C33.8793 28.2518 33.3374 28.6614 32.8038 29.0835C30.9279 31.5827 29.644 34.5541 29.1562 37.7847C30.5236 35.7995 32.2702 33.9272 34.342 32.2137V32.2096Z" fill="#2D2F34"/>
<path d="M16.8335 47.7186C16.8335 29.3593 40.7863 14.4688 70.3376 14.4688C99.8889 14.4688 123.838 29.3551 123.838 47.7186C123.838 66.0821 99.8847 80.9643 70.3376 80.9643C40.7905 80.9643 16.8335 66.0821 16.8335 47.7186ZM70.3376 77.6251C96.7207 77.6251 118.114 64.2015 118.114 47.635C118.114 31.0686 96.7207 17.6408 70.3376 17.6408C43.9545 17.6408 22.5612 31.0728 22.5612 47.6392C22.5612 64.2057 43.9503 77.6293 70.3376 77.6293V77.6251Z" fill="url(#paint8_linear_19_331)"/>
<path d="M57.7695 48.1657C57.7695 32.0631 63.3972 18.7021 70.3379 18.7021C77.2786 18.7021 82.9104 32.0631 82.9104 48.1657C82.9104 64.2682 77.2828 77.6292 70.3379 77.6292C63.393 77.6292 57.7695 64.4395 57.7695 48.1657ZM70.3379 68.577C75.0151 68.577 78.8085 59.3451 78.8085 47.1585C78.8085 34.9719 75.0151 25.8026 70.3379 25.8026C65.6607 25.8026 61.8673 34.5163 61.8673 47.1585C61.8673 59.8006 65.6565 68.577 70.3379 68.577Z" fill="url(#paint9_linear_19_331)"/>
<path d="M34.1877 28.5317C35.5675 23.0569 52.2419 15.0913 70.3378 15.0913C88.4338 15.0913 104.533 20.7834 106.488 28.5317C108.677 37.2161 92.6024 45.0772 70.3378 45.0772C48.0733 45.0772 31.9991 37.2161 34.1877 28.5317ZM70.3378 18.7022C54.8014 18.7022 40.9783 22.7853 39.2984 28.3394C37.4183 34.5623 51.2164 40.1959 70.3378 40.1959C89.4592 40.1959 103.257 34.5623 101.377 28.3394C99.7015 22.7811 85.8742 18.7022 70.3378 18.7022Z" fill="url(#paint10_linear_19_331)"/>
<path d="M61.9007 44.6761L61.909 44.6844L63.0554 46.7155C65.394 46.9161 67.8201 47.029 70.3338 47.029C72.8474 47.029 75.2944 46.9161 77.6455 46.7113L78.7627 44.6886L78.771 44.6802C76.0823 44.9352 73.2685 45.0773 70.3379 45.0773C67.4074 45.0773 64.5894 44.9352 61.9007 44.6802V44.6761ZM106.676 30.4082C106.388 36.6185 96.867 42.1184 82.7937 44.1913H82.7979L84.1694 45.8421C97.9383 43.3596 106.997 37.2663 106.672 30.4082H106.676ZM34.0002 30.4082C33.675 37.2705 42.7334 43.3596 56.4982 45.8421L57.8738 44.1996C43.8006 42.1226 34.2836 36.6185 33.996 30.4082H34.0002Z" fill="url(#paint11_linear_19_331)"/>
<path d="M70.0001 120.573C69.9834 114.725 74.6621 110.008 80.5021 110C86.2048 110.008 90.8834 114.725 91 120.573C90.8876 126.355 86.2048 131.071 80.5021 131.151C74.6579 131.067 69.9793 126.351 70.0001 120.573ZM80.5021 127.256C83.6573 127.206 86.2672 124.221 86.3005 120.573C86.2672 116.855 83.6573 113.87 80.5021 113.891C77.2096 113.87 74.5913 116.855 74.6954 120.573C74.5913 124.221 77.2096 127.206 80.5021 127.256Z" fill="#AB002F"/>
<path d="M102.867 113.684V130.144H98.4138V113.684H92V110H109V113.684H102.867Z" fill="#AB002F"/>
<path d="M114.956 125.596L113.29 130.144H108L116.353 110H121.92L130 130.144H124.71L123.04 125.596H114.956ZM119.138 122.194H121.92L119.138 114.813L116.353 122.194H119.138Z" fill="#AB002F"/>
<path d="M20.7642 113.684V130.144H16.2315V113.684H10V110H27V113.684H20.7642Z" fill="#AB002F"/>
<path d="M28 120.573C28.0083 114.725 32.6838 110.008 38.4958 110C44.2329 110.008 48.9167 114.725 49 120.573C48.9167 126.355 44.2329 131.071 38.4958 131.151C32.6838 131.067 28.0083 126.351 28 120.573ZM38.4958 127.256C41.6891 127.206 44.2996 124.221 44.2996 120.573C44.2996 116.855 41.685 113.87 38.4958 113.891C35.2359 113.87 32.6213 116.855 32.7004 120.573C32.6255 124.221 35.2401 127.206 38.4958 127.256Z" fill="#AB002F"/>
<path d="M59.4978 130.144H61.8311V122.48L70 110H64.7533L59.4978 118.51L54.5367 110H49L57.1689 122.48V130.144H59.4978Z" fill="#AB002F"/>
<defs>
<linearGradient id="paint0_linear_19_331" x1="70.338" y1="73.9224" x2="70.338" y2="36.0336" gradientUnits="userSpaceOnUse">
<stop stop-color="#F0F3F5"/>
<stop offset="0.06" stop-color="#E1E4E8"/>
<stop offset="0.14" stop-color="#D4D7DC"/>
<stop offset="0.24" stop-color="#CCD0D6"/>
<stop offset="0.44" stop-color="#CACED4"/>
<stop offset="0.57" stop-color="#B3B6BD"/>
<stop offset="0.84" stop-color="#787B82"/>
<stop offset="1" stop-color="#52545C"/>
</linearGradient>
<linearGradient id="paint1_linear_19_331" x1="70.3381" y1="45.0521" x2="70.3381" y2="24.5238" gradientUnits="userSpaceOnUse">
<stop stop-color="#F0F3F5"/>
<stop offset="0.06" stop-color="#E1E4E8"/>
<stop offset="0.14" stop-color="#D4D7DC"/>
<stop offset="0.24" stop-color="#CCD0D6"/>
<stop offset="0.44" stop-color="#CACED4"/>
<stop offset="0.57" stop-color="#B3B6BD"/>
<stop offset="0.84" stop-color="#787B82"/>
<stop offset="1" stop-color="#52545C"/>
</linearGradient>
<linearGradient id="paint2_linear_19_331" x1="77.1325" y1="41.2824" x2="64.3206" y2="30.5571" gradientUnits="userSpaceOnUse">
<stop stop-color="#F0F3F5"/>
<stop offset="0.06" stop-color="#E1E4E8"/>
<stop offset="0.14" stop-color="#D4D7DC"/>
<stop offset="0.24" stop-color="#CCD0D6"/>
<stop offset="0.44" stop-color="#CACED4"/>
<stop offset="0.57" stop-color="#B3B6BD"/>
<stop offset="0.84" stop-color="#787B82"/>
<stop offset="1" stop-color="#52545C"/>
</linearGradient>
<linearGradient id="paint3_linear_19_331" x1="78.4374" y1="59.1739" x2="59.7676" y2="48.4242" gradientUnits="userSpaceOnUse">
<stop stop-color="#F0F3F5"/>
<stop offset="0.06" stop-color="#E1E4E8"/>
<stop offset="0.14" stop-color="#D4D7DC"/>
<stop offset="0.24" stop-color="#CCD0D6"/>
<stop offset="0.44" stop-color="#CACED4"/>
<stop offset="0.57" stop-color="#B3B6BD"/>
<stop offset="0.84" stop-color="#787B82"/>
<stop offset="1" stop-color="#52545C"/>
</linearGradient>
<linearGradient id="paint4_linear_19_331" x1="63.793" y1="14.4686" x2="63.793" y2="47.0289" gradientUnits="userSpaceOnUse">
<stop stop-color="#F0F3F5"/>
<stop offset="0.06" stop-color="#E1E4E8"/>
<stop offset="0.14" stop-color="#D4D7DC"/>
<stop offset="0.24" stop-color="#CCD0D6"/>
<stop offset="0.44" stop-color="#CACED4"/>
<stop offset="0.57" stop-color="#B3B6BD"/>
<stop offset="0.84" stop-color="#787B82"/>
<stop offset="1" stop-color="#52545C"/>
</linearGradient>
<linearGradient id="paint5_linear_19_331" x1="76.8784" y1="14.4686" x2="76.8784" y2="47.0289" gradientUnits="userSpaceOnUse">
<stop stop-color="#F0F3F5"/>
<stop offset="0.06" stop-color="#E1E4E8"/>
<stop offset="0.14" stop-color="#D4D7DC"/>
<stop offset="0.24" stop-color="#CCD0D6"/>
<stop offset="0.44" stop-color="#CACED4"/>
<stop offset="0.57" stop-color="#B3B6BD"/>
<stop offset="0.84" stop-color="#787B82"/>
<stop offset="1" stop-color="#52545C"/>
</linearGradient>
<linearGradient id="paint6_linear_19_331" x1="77.2742" y1="14.1927" x2="77.2742" y2="68.5351" gradientUnits="userSpaceOnUse">
<stop stop-color="#F0F3F5"/>
<stop offset="0.06" stop-color="#E1E4E8"/>
<stop offset="0.14" stop-color="#D4D7DC"/>
<stop offset="0.24" stop-color="#CCD0D6"/>
<stop offset="0.44" stop-color="#CACED4"/>
<stop offset="0.57" stop-color="#B3B6BD"/>
<stop offset="0.84" stop-color="#787B82"/>
<stop offset="1" stop-color="#52545C"/>
</linearGradient>
<linearGradient id="paint7_linear_19_331" x1="63.3972" y1="14.1929" x2="63.3972" y2="68.5353" gradientUnits="userSpaceOnUse">
<stop stop-color="#F0F3F5"/>
<stop offset="0.06" stop-color="#E1E4E8"/>
<stop offset="0.14" stop-color="#D4D7DC"/>
<stop offset="0.24" stop-color="#CCD0D6"/>
<stop offset="0.44" stop-color="#CACED4"/>
<stop offset="0.57" stop-color="#B3B6BD"/>
<stop offset="0.84" stop-color="#787B82"/>
<stop offset="1" stop-color="#52545C"/>
</linearGradient>
<linearGradient id="paint8_linear_19_331" x1="70.3334" y1="14.4688" x2="70.3334" y2="80.9643" gradientUnits="userSpaceOnUse">
<stop stop-color="#F0F3F5"/>
<stop offset="0.25" stop-color="#EDF0F2"/>
<stop offset="0.41" stop-color="#E5E8EA"/>
<stop offset="0.53" stop-color="#D6D9DC"/>
<stop offset="0.64" stop-color="#C2C5C8"/>
<stop offset="0.74" stop-color="#A8ABAF"/>
<stop offset="0.84" stop-color="#888A8F"/>
<stop offset="0.93" stop-color="#63656B"/>
<stop offset="1" stop-color="#3D3F46"/>
</linearGradient>
<linearGradient id="paint9_linear_19_331" x1="70.3379" y1="14.4644" x2="70.3379" y2="80.9684" gradientUnits="userSpaceOnUse">
<stop stop-color="#F0F3F5"/>
<stop offset="0.25" stop-color="#EDF0F2"/>
<stop offset="0.41" stop-color="#E5E8EA"/>
<stop offset="0.53" stop-color="#D6D9DC"/>
<stop offset="0.64" stop-color="#C2C5C8"/>
<stop offset="0.74" stop-color="#A8ABAF"/>
<stop offset="0.84" stop-color="#888A8F"/>
<stop offset="0.93" stop-color="#63656B"/>
<stop offset="1" stop-color="#3D3F46"/>
</linearGradient>
<linearGradient id="paint10_linear_19_331" x1="70.3378" y1="14.4728" x2="70.3378" y2="80.9725" gradientUnits="userSpaceOnUse">
<stop stop-color="#F0F3F5"/>
<stop offset="0.25" stop-color="#EDF0F2"/>
<stop offset="0.41" stop-color="#E5E8EA"/>
<stop offset="0.53" stop-color="#D6D9DC"/>
<stop offset="0.64" stop-color="#C2C5C8"/>
<stop offset="0.74" stop-color="#A8ABAF"/>
<stop offset="0.84" stop-color="#888A8F"/>
<stop offset="0.93" stop-color="#63656B"/>
<stop offset="1" stop-color="#3D3F46"/>
</linearGradient>
<linearGradient id="paint11_linear_19_331" x1="70.3379" y1="28.2601" x2="70.3379" y2="47.2129" gradientUnits="userSpaceOnUse">
<stop stop-color="#CACED4"/>
<stop offset="1" stop-color="#52545C"/>
</linearGradient>
</defs>
</svg>
