<svg width="140" height="140" viewBox="0 0 140 140" fill="none" xmlns="http://www.w3.org/2000/svg">
<path fill-rule="evenodd" clip-rule="evenodd" d="M103.051 14.5378C103.062 13.9307 103.074 13.3254 103.085 12.7183L69.9368 6.46484L36.915 12.6243C36.9223 13.1834 36.9313 13.7834 36.9403 14.4206C37.0812 14.3957 68.9366 8.53455 69.9368 8.46887C70.1661 8.45467 101.599 14.2679 103.051 14.5378Z" fill="#006A00"/>
<path fill-rule="evenodd" clip-rule="evenodd" d="M70.2021 95.7053L71.9192 94.5728C72.5981 94.1255 73.2734 93.6729 73.9432 93.2149C76.7039 91.328 79.2263 89.3968 81.6891 87.146C82.9782 85.9692 84.2114 84.7355 85.3887 83.4504C88.6766 79.8595 91.4788 75.9011 93.8585 71.6765C94.7342 70.1233 95.5539 68.5418 96.3159 66.9318C96.6174 66.2946 96.9081 65.6538 97.188 65.0077C98.1702 62.6788 99.0332 60.2807 99.7753 57.8507C100.001 57.0927 100.212 56.3312 100.411 55.568C100.803 54.0645 101.146 52.5504 101.444 51.0274C101.695 49.7387 101.915 48.4483 102.103 47.1578C102.986 41.7705 102.986 34.4538 102.937 24.3946C102.937 23.5621 102.942 22.7296 102.949 21.8954C102.949 21.8812 102.949 21.867 102.949 21.8528L101.213 21.093C80.5606 12.0581 59.1016 12.0882 38.4316 21.1836L37.0449 21.7942C37.1027 25.765 37.1659 29.8813 37.2219 33.0551L37.2616 35.2703C37.2778 36.2111 37.2995 37.1501 37.323 38.0909C37.341 38.7672 37.3645 39.4452 37.3934 40.1215C37.4114 40.5724 37.4331 41.0215 37.4566 41.4723C37.4891 42.1096 37.5306 42.7468 37.5812 43.3841C37.6028 43.6645 37.6281 43.945 37.6588 44.2254C37.7635 45.5088 37.917 46.7886 38.1192 48.0613C38.3395 49.4547 38.6085 50.841 38.9245 52.2185C39.8923 56.4484 41.2645 60.657 42.931 64.6686C44.7781 69.1151 47.2012 73.7924 50.0503 77.6904C50.6064 78.4519 51.177 79.2045 51.7584 79.9464C53.8276 82.5877 56.0574 85.0763 58.5383 87.3537C59.3255 88.0761 60.1344 88.7755 60.9649 89.4483C61.893 90.2009 62.8445 90.9251 63.8177 91.6209C64.7945 92.3167 65.7839 92.9948 66.7878 93.6516C67.3151 93.9977 67.8423 94.3403 68.3731 94.6811C68.9401 95.0468 69.5088 95.4106 70.0776 95.7745C70.1119 95.755 70.1552 95.7301 70.2039 95.7017L70.2021 95.7053Z" fill="black"/>
<path fill-rule="evenodd" clip-rule="evenodd" d="M81.2305 77.9779H81.81C81.8425 77.9779 81.8498 77.9779 81.8805 77.969C82.1802 77.8944 82.2271 77.9015 82.4203 77.7294C82.6894 77.4915 83.0848 77.1241 82.9981 76.9608C82.8555 76.691 82.7237 77.0211 82.3824 77.188C82.3373 77.2111 82.2939 77.2164 82.2253 77.2181C81.987 77.227 81.42 77.1986 81.42 77.1986C81.42 77.1986 81.5825 76.6981 81.7198 76.3342C82.0068 75.5727 82.3427 75.1413 82.8392 74.4331C82.8573 74.4065 82.8627 74.4047 82.8952 74.4012C84.8073 74.2112 85.4392 74.2219 87.1148 73.4817C87.4488 73.3344 87.8496 73.1444 87.8496 73.1444L87.7991 72.9012C87.7991 72.9012 87.0064 73.1054 86.4196 73.2349C85.302 73.4799 84.0146 73.5633 82.9493 73.4675C80.3873 73.2367 80.1742 72.7752 78.4228 73.219C77.6753 73.4089 76.8881 73.7923 76.5306 74.4846C76.3013 74.9301 76.2814 75.4591 76.61 75.894C76.8375 76.1957 77.3323 76.2596 77.6663 76.1815C78.1249 76.0732 78.5925 75.8372 78.7713 75.4839C78.8255 75.3757 78.9392 75.0544 78.8977 74.9869C78.8327 74.884 78.7099 75.0526 78.598 75.1573C78.1989 75.5319 77.6103 75.5407 77.3359 75.1822C76.9693 74.7047 77.4713 74.2556 77.966 74.0568C78.5492 73.8225 79.0439 73.8598 79.7174 73.9787C80.4794 74.1154 81.7396 74.4029 81.7396 74.4029C81.7396 74.4029 81.0824 75.1147 80.8062 75.5443C80.4378 76.1176 80.037 77.1259 79.9467 77.172C79.8528 77.2199 79.7373 77.2164 79.5603 77.2643C79.118 77.3868 78.8489 77.6353 78.6449 77.9708C78.6142 78.0205 78.598 78.0755 78.6287 78.1163C78.6666 78.166 78.7623 78.2281 78.7623 78.2281C78.7623 78.2281 78.8778 78.1341 78.9663 78.0702C79.1469 77.9406 79.3924 77.8802 79.582 77.9459C79.6506 77.969 79.6452 78.0116 79.6398 78.1287C79.6398 78.1607 79.6362 78.166 79.6235 78.1944C79.0475 79.3624 78.7243 80.2606 77.818 81.0771C77.056 81.7658 75.7271 81.8386 74.9273 81.2013C74.4524 80.8215 74.0805 80.0778 74.196 79.4796C74.2249 79.3322 74.2881 79.1281 74.3639 79.1068C74.4524 79.0819 74.6167 79.2257 74.763 79.2772C74.9995 79.3589 75.3823 79.1725 75.5195 78.9612C75.7452 78.6151 75.6639 78.1962 75.3552 77.9601C75.0789 77.7471 74.6077 77.7666 74.3043 77.9299C73.3456 78.4465 73.4287 80.0138 73.8313 80.7824C74.373 81.8137 75.5087 82.4084 76.592 82.38C77.7421 82.348 78.7298 81.7818 79.5892 80.8534C79.6705 80.7665 79.7427 80.6795 79.8167 80.589C80.4143 79.8434 80.7412 78.9293 81.1817 78.111C81.2106 78.056 81.2305 78.0134 81.2305 77.9921C81.2305 77.985 81.2305 77.9761 81.2305 77.9761V77.9779ZM59.5566 77.8802V77.8696C59.5566 77.8696 59.3923 77.8501 59.2731 77.8536C58.8723 77.866 58.4118 78.2867 58.2475 78.6133C57.9334 79.2417 58.0291 80.2144 58.3577 80.7682C58.8253 81.5564 59.58 82.0267 60.4557 82.2575C61.6203 82.5628 63.128 82.1918 63.9585 81.4357C64.7349 80.7274 65.0473 79.8505 64.9046 78.7997C64.8234 78.1926 64.585 77.7063 64.1571 77.3105C64.0271 77.1915 63.0774 76.6075 62.7903 76.4726C62.2884 76.2366 60.1199 75.4555 59.84 74.6745C59.71 74.3124 59.8419 73.929 60.203 73.7604C60.8837 73.4409 61.6221 73.6698 62.3173 73.9769C62.7416 74.1651 63.2995 74.5432 63.5866 74.9248C63.8213 75.2372 64.1264 75.7608 64.233 75.807C64.3088 75.8389 64.372 75.8212 64.4153 75.7502C64.4568 75.6845 64.2041 75.0686 64.0687 74.5982C63.9585 74.2165 63.9874 73.5616 63.8953 73.3113C63.8574 73.2066 63.796 73.148 63.675 73.187C63.5432 73.2296 63.4349 73.3965 63.2959 73.4657C62.9059 73.6627 62.0464 73.1764 61.7178 73.0628C60.9631 72.8036 59.7768 72.9456 59.2099 73.5953C58.8614 73.9964 58.7332 74.3053 58.7043 74.7668C58.6953 74.9195 58.6917 75.0402 58.6989 75.1484C58.7585 75.933 59.6523 76.604 60.2535 76.9608C60.4359 77.069 60.6056 77.1649 60.6923 77.2022C61.5625 77.5838 63.0828 78.1767 63.3212 78.3435C64.0289 78.837 64.2438 79.7032 63.8159 80.5197C63.0214 82.0321 60.3492 82.0214 59.1774 80.8392C58.8452 80.5038 58.5473 79.8594 58.7513 79.3571C58.8488 79.1175 58.9553 79.2825 59.2875 79.3411C59.627 79.4015 60.0116 79.0251 60.0766 78.7678C60.1542 78.4589 60.0477 78.1554 59.775 77.9938C59.7173 77.9601 59.6523 77.9282 59.5891 77.898C59.5602 77.8838 59.5566 77.882 59.5566 77.8785V77.8802ZM69.915 94.2L68.3641 93.1563C67.3963 92.5048 65.6214 91.3937 64.4785 90.6304C64.1445 90.4085 60.0748 87.1531 59.6125 86.7395C58.8398 86.0472 56.6189 83.926 56.0718 83.3527C55.7071 82.9728 51.9985 78.5601 51.6555 78.0968C51.1896 77.4702 48.8659 74.0373 48.4217 73.3184C44.9623 67.727 42.7487 62.3539 41.0225 56.0543C40.7138 54.9271 40.0457 52.1669 39.8543 51.2333C39.3307 48.6665 38.8595 45.2869 38.6555 42.5639C38.5796 41.5504 38.5381 40.5759 38.4984 39.4168C38.3503 35.0963 38.1499 22.7757 38.1499 22.7757C38.1499 22.7757 38.2005 22.7473 38.2835 22.6994C59.3002 13.3236 80.9705 13.3804 101.937 22.8663C101.94 22.8698 101.944 22.8751 101.946 22.8787C101.978 22.9355 101.985 22.9958 101.993 23.058C102.021 23.3029 101.689 39.0405 101.63 40.2227C101.402 44.7224 101.063 47.6903 100.037 52.4722C99.8584 53.3065 98.9953 56.6596 98.7444 57.4956C98.5078 58.2855 97.1284 62.2634 96.8196 63.0462C93.7863 70.757 89.592 77.4649 83.7889 83.4894C83.2563 84.0432 80.6996 86.4697 80.0893 87.0004C79.6434 87.3892 75.2505 90.7919 74.8027 91.0937C74.0624 91.5942 72.6631 92.4711 71.3432 93.3001L69.915 94.1982V94.2ZM49.0518 46.659H49.0356C49.0356 46.659 49.041 46.8755 49.0663 46.9838C49.1295 47.2376 49.6964 47.0388 49.9618 46.943C50.6732 46.6838 51.7927 46.0856 51.9064 45.3401C51.9606 44.9869 51.7439 44.9993 51.5128 44.41C51.4514 44.2556 51.4749 44.1331 51.576 43.9662C51.6537 43.8384 51.762 43.7213 51.8288 43.5881C51.8793 43.487 51.9046 43.3769 51.9227 43.2633C52.0671 42.4148 52.0707 42.1734 52.6648 41.4563C53.183 40.8315 54.0568 39.9351 54.353 39.5038C54.5967 39.147 54.8007 38.76 54.9687 38.4618C55.021 38.3677 55.0788 38.2772 55.1564 38.2364C55.2178 38.2044 55.5627 38.2151 55.6782 38.2541C55.8462 38.3092 55.9437 38.3926 56.0881 38.5701C56.4528 39.0174 56.8681 39.7824 57.1137 40.031C57.7456 40.6717 58.7964 41.5681 58.7693 41.6232C58.6755 41.8273 58.0255 41.4403 57.807 41.3232C57.6752 41.254 56.052 40.8244 55.6927 40.7658C54.5913 40.583 54.1616 40.4144 53.3509 41.1066C52.8291 41.5522 52.5185 42.1326 52.4589 42.6882C52.4427 42.8391 53.1143 48.1607 53.1685 48.3169C53.2714 48.6133 53.387 49.0233 53.3888 49.1689C53.396 49.6641 53.2949 49.7955 53.6091 50.2943C53.7842 50.5729 54.0406 50.8019 54.2248 51.0824C54.4107 51.3646 54.6166 52.032 54.8405 52.5095C54.9813 52.8077 55.6674 53.9296 56.0773 54.2704C56.4492 54.5792 56.7002 54.4567 57.0017 54.0467C57.4603 53.4219 57.4748 51.8794 57.2112 51.2972C57.11 51.0735 56.9385 50.8853 56.702 50.7806C56.3896 50.6439 55.7667 50.5055 55.7667 50.5055C55.7667 50.5055 55.6746 49.4848 55.5663 49.1529C55.4977 48.9399 55.3821 48.7748 55.2828 48.5955C54.7773 47.6814 54.8387 46.7726 54.7935 45.6809C54.7827 45.436 54.7646 45.1875 54.6996 44.9514C54.6075 44.6212 54.4595 44.0923 54.4793 44.0213C54.5299 43.8331 54.7466 43.6804 54.9524 43.6964C55.4363 43.7319 55.7902 44.1065 56.173 44.394C56.3914 44.5573 57.5416 45.1857 58.2114 45.5567C58.4498 45.688 58.735 45.8868 58.8416 46.0058C58.9427 46.1176 59.0185 46.2454 59.116 46.3696C59.3598 46.682 59.7642 47.014 60.0946 47.1365C60.945 47.4542 61.1003 47.2802 61.4362 47.6388C61.6023 47.8163 61.9309 48.3027 62.162 48.679C62.4075 49.0819 62.6206 49.4476 62.8553 49.7955C63.0287 50.0511 64.1589 51.3753 64.4225 51.6326C64.9895 52.1847 69.2668 55.6159 69.9927 56.2992C70.1534 56.4501 70.9171 57.1655 71.011 57.508C71.0345 57.5933 71.0309 57.698 70.9532 57.7246C70.9207 57.737 70.8828 57.7246 70.8431 57.7086C70.7637 57.6767 69.72 56.6241 69.5666 56.4217C69.4871 56.3152 67.9975 55.1543 67.9181 55.1348C67.8314 55.1153 67.7393 55.0975 67.7393 55.0975C67.7393 55.0975 67.6725 55.3265 67.6328 55.5076C67.5082 56.088 67.6202 57.398 67.696 57.8329C67.9759 59.4269 68.6566 61.0794 69.5106 62.5776C69.953 63.355 70.6282 64.4254 70.6282 64.4254C70.6282 64.4254 70.4693 64.8408 70.3303 65.0733C70.1082 65.4461 69.9132 65.4975 69.4312 65.5082C68.5518 65.5277 67.297 65.5419 66.8131 65.5082C65.6142 65.423 63.666 65.1887 63.2634 65.2135C63.0467 65.2259 62.8355 65.2526 62.6332 65.3058C62.5068 65.3395 62.3841 65.3821 62.2541 65.4141C61.9164 65.4975 60.5984 65.4851 60.0459 65.5845C59.4663 65.6892 58.457 66.0478 58.0905 66.5058C57.816 66.8483 57.9839 67.056 58.3432 67.3063C58.4895 67.4075 59.4681 67.8388 59.7155 67.9116C60.2391 68.0625 61.0407 68.2719 61.3712 67.8122C61.4596 67.6915 61.5246 67.5353 61.6239 67.4075C61.8171 67.1572 62.0699 66.9957 62.3335 67.0436C62.5393 67.0809 62.738 67.214 62.9492 67.2601C63.0702 67.2868 63.3807 67.269 63.583 67.2229C64.7674 66.9531 64.9173 66.9229 66.4827 67.0578C66.9846 67.1004 68.5067 67.3382 68.8805 67.4305C69.7363 67.6418 71.1302 68.0216 71.3884 68.05C71.7748 68.0926 72.0889 68.0926 72.3038 67.8424C72.3868 67.7447 72.683 67.111 72.6974 66.9957C72.7137 66.8732 72.6505 66.4667 72.5873 66.2821C72.1702 65.0697 71.8506 64.6224 71.6881 63.6923C71.6448 63.4385 71.5852 61.8658 71.6087 61.5676C71.6646 60.8629 71.8813 60.0251 72.1918 59.3346C72.6667 58.2855 73.3673 57.5205 73.6273 56.5744C73.741 56.1608 73.8638 55.504 73.8638 55.504C73.8638 55.504 73.9288 55.504 73.9739 55.52C74.1148 55.5697 74.0624 56.1342 74.0534 56.2176C74.0317 56.4199 73.9468 56.6898 73.8475 56.9312C73.5677 57.6217 72.7588 58.976 72.4121 59.7996C71.8885 61.0439 71.8632 62.4196 72.1756 63.8929C72.3489 64.7165 72.8563 66.2413 73.2318 66.8856C73.6634 67.624 74.4307 68.7707 74.4777 68.9624C74.5481 69.2464 74.4019 69.5216 74.1942 69.8393C74.0931 69.9937 73.2409 70.8759 73.035 71.0392C71.8362 71.9924 69.6749 73.7018 69.6189 73.7905C69.46 74.0444 69.3643 74.3106 69.1766 74.5538C69.0249 74.7508 68.0932 75.4094 67.5407 75.8709C67.38 76.004 66.9142 76.5472 66.842 76.6839C66.6957 76.9608 66.5531 77.3051 66.8113 77.4436C67.0568 77.5749 67.9073 77.6513 68.0571 77.6601C68.9888 77.7187 69.6225 77.669 70.3917 77.3655C70.7203 77.2359 70.9514 77.0335 70.8485 76.6839C70.7691 76.4105 70.6355 76.233 70.7384 75.9703C70.7925 75.8336 70.9153 75.7342 71.0598 75.6543C71.5491 75.3828 71.7657 75.3828 71.9535 74.8857C71.9914 74.7846 72.0095 74.6852 72.0474 74.5911C72.1052 74.4509 72.246 74.2822 72.3778 74.1313C73.3907 72.9776 73.6255 72.6811 74.7666 71.8149C75.0699 71.5842 76.025 70.986 76.2273 70.9008C76.6118 70.7375 77.1174 70.5653 77.1896 70.1712C77.2582 69.8038 77.2185 68.9482 77.0795 68.6216C76.9712 68.3678 76.74 68.1015 76.5902 67.8317C76.2056 67.1323 76.2291 66.3176 76.5595 65.6449C76.6913 65.375 76.8195 65.1709 76.9856 64.9774C77.1571 64.7769 79.1793 63.4225 79.9756 62.7604C80.613 62.2297 81.9418 60.657 82.1928 59.7215C82.3409 59.1713 82.4998 58.1719 82.5864 58.0548C82.7002 57.9039 82.9295 57.9252 83.0595 58.1151C83.2364 58.3725 83.222 58.779 83.1859 59.0861C83.1173 59.6683 82.9241 60.57 82.823 61.1327C82.7923 61.2995 82.8013 61.5889 82.8392 61.722C82.9042 61.9474 83.045 62.2492 83.045 62.2492C83.045 62.2492 83.0902 61.809 83.1714 61.4895C83.2852 61.0368 83.4657 60.8256 83.5506 60.5132C83.621 60.2523 83.6066 59.4712 83.9767 59.4127C84.1807 59.3789 84.2349 59.7499 84.2602 59.986C84.3306 60.6161 84.2295 61.1096 83.9478 61.7912C83.6662 62.4675 82.6442 63.7154 82.7778 64.4822C82.8049 64.6313 82.8898 64.9011 82.9837 65.0183C83.0667 65.123 83.2202 65.2685 83.2202 65.2685V64.626C83.2202 64.594 83.2202 64.5869 83.231 64.5585C83.361 64.1911 83.5127 63.9213 83.7871 63.5592C84.5707 62.5243 84.7621 62.5243 85.1756 61.5534C85.4374 60.9392 85.5259 60.5203 85.6017 59.8635C85.6234 59.6789 85.5656 58.8819 85.5223 58.779C85.4898 58.6991 84.9427 57.9128 85.1593 57.7548C85.3471 57.6181 85.7732 58.3175 85.822 58.4222C86.1506 59.1162 86.0513 59.4712 86.0748 60.2984C86.0892 60.783 86.2337 61.2853 86.5948 61.7504C86.6435 61.8143 86.7067 61.8782 86.7519 61.8498C86.7681 61.8392 86.7771 61.8143 86.7825 61.7877C86.8223 61.6173 86.5966 60.6907 86.6092 60.2984C86.6182 60.0535 86.862 59.4677 86.9396 59.1198C86.9739 58.9707 86.9739 58.8056 86.9396 58.6388C86.8367 58.1471 86.4792 57.2311 86.5135 57.1406C86.5605 57.0199 86.9216 56.9631 87.3657 56.7927C88.8102 56.2407 89.9062 54.7621 90.2691 53.5515C90.5291 52.6782 90.6175 51.7676 90.5219 50.8073C90.3052 48.6328 89.935 48.4251 90.325 46.4193C90.3648 46.217 90.4045 46.0448 90.4893 45.862C90.6591 45.4945 91.3741 44.607 91.5835 44.1757C91.7966 43.7408 91.8363 43.4674 91.7659 42.9314C91.7316 42.6669 91.6503 42.5267 91.5131 42.6367C91.4102 42.7184 91.1141 43.5296 90.8505 44.0781C90.7819 44.2218 89.9585 45.2691 89.8032 45.4111C89.5035 45.6845 89.258 45.8797 89.0991 45.5354C88.9077 45.1182 88.9564 44.4632 89.0684 44.094C89.1424 43.8455 89.2417 43.5988 89.3843 43.3503C89.6787 42.8355 90.4478 41.9515 90.7259 41.4581C90.9155 41.1208 91.3506 40.1463 91.2314 39.7842C91.1574 39.5606 91.031 39.589 90.8848 39.7594C90.7277 39.9422 90.3702 40.5439 90.1427 40.9256C90.0073 41.1528 89.8375 41.3853 89.6859 41.5291C89.4259 41.774 89.0142 42.0616 88.9293 42.216C88.9131 42.248 88.9041 42.2764 88.8806 42.3119C88.7831 42.4699 87.8623 43.1692 87.8623 43.1692C87.8623 43.1692 87.8153 42.6048 87.8225 42.2338C87.8388 41.3853 88.4617 39.9777 89.0052 39.3582C89.4728 38.8257 90.3937 37.979 90.4243 37.8618C90.455 37.7447 90.4117 37.6719 90.2673 37.7074C90.1355 37.7394 90 37.8317 89.8628 37.924C89.1695 38.3961 88.7668 38.6606 88.2793 39.1701C87.725 39.7487 87.261 40.4108 86.9866 41.0711C86.5478 42.1237 86.472 43.3521 86.6399 44.4348C86.7573 45.191 87.1093 46.3235 87.3025 47.2572C87.568 48.5405 87.7016 50.754 87.3657 52.064C87.1075 53.0722 86.5587 53.9278 85.7498 54.6218C85.1684 55.1206 84.6068 55.3709 83.7835 55.6602C83.6734 55.6993 83.5759 55.733 83.4206 55.7525C83.1371 55.7916 82.6641 55.7863 82.6641 55.7863C82.6641 55.7863 82.2434 54.407 81.9545 53.7591C81.4489 52.6249 79.9864 50.9706 79.1631 50.1753C78.8363 49.8594 77.8631 49.0535 77.5471 48.8352C77.1048 48.5299 76.5414 48.182 76.2598 47.9459C75.2794 47.1223 73.9487 45.2052 73.4359 43.968C73.0387 43.0095 72.8852 42.1291 73.1199 41.1617C73.1903 40.8705 73.2788 40.7942 73.5623 40.9131C73.7591 40.9966 73.9252 41.1705 74.131 41.2859C74.3441 41.4048 75.0627 41.5096 75.4725 41.6587C75.6188 41.7119 75.747 41.7829 75.8824 41.8752C76.3555 42.2036 77.186 42.8976 77.3503 42.9456C77.4334 42.9704 77.5435 42.9793 77.6031 42.9154C77.7277 42.7787 77.4821 42.6811 77.3431 42.5906C77.233 42.5178 77.0939 42.358 77.0037 42.2107C76.6714 41.664 76.6588 41.5451 76.1605 41.1794C76.1027 41.1368 76.0467 41.0978 75.9781 41.0711C75.8174 41.0072 75.5267 41.0037 75.4419 40.8794C75.4094 40.8333 75.4256 40.8013 75.4834 40.7765C75.682 40.693 76.3085 40.9078 76.4367 40.9788C76.7762 41.1688 77.2817 41.6551 77.4298 41.6924C77.4984 41.7084 77.5471 41.6871 77.5724 41.5841C77.6103 41.4244 77.5218 41.2966 77.4298 41.1972C77.0668 40.7978 76.2399 40.1179 75.7109 39.9724C75.3552 39.8747 75.2775 39.9191 74.8912 39.7097C74.7305 39.6227 74.6546 39.5215 74.7593 39.4612C74.8027 39.4363 75.9637 39.6972 76.137 39.7718C76.6118 39.9741 77.892 40.6291 78.6449 40.6238C79.0656 40.622 79.7662 40.4605 80.0731 40.1889C80.1309 40.1375 80.2482 40.031 80.2537 39.9564C80.2591 39.8943 80.2374 39.802 80.2374 39.802C80.2374 39.802 80.1598 39.8055 80.0948 39.8179C80.0063 39.8339 79.8059 40.0043 79.6687 40.0966C79.5928 40.1481 79.118 40.2511 78.9591 40.2511C78.6377 40.2511 78.3145 40.1765 78.0834 39.9883C77.7674 39.731 77.3521 39.186 77.0434 38.9641C76.7473 38.7511 76.3609 38.705 75.8355 38.5293C75.5141 38.4228 75.0573 38.2169 74.8027 38.0642C74.7756 38.0482 74.6438 37.9577 74.7142 37.9186C74.725 37.9115 74.7449 37.9098 74.7467 37.892C74.7467 37.8849 74.7467 37.876 74.7467 37.876C74.7467 37.876 75.4039 38.0979 75.9167 38.1654C76.2887 38.2151 77.6139 38.0695 77.7909 38.1245C78.1195 38.224 78.4914 38.492 78.7532 38.5435C78.885 38.5683 78.9446 38.5239 78.9175 38.3979C78.9103 38.3677 78.9067 38.3606 78.8832 38.3411C78.2459 37.8317 77.7187 37.2867 76.9711 37.1944C76.8231 37.1767 76.2977 37.1998 76.2977 37.072C76.2977 37.0222 76.4999 36.9601 76.6407 36.9317C76.9693 36.8643 77.3106 36.9335 77.65 37.1181C78.1087 37.3666 78.1068 37.4483 78.486 37.537C78.8164 37.6151 79.4032 37.7145 79.6614 37.553C79.7481 37.498 79.7246 37.3276 79.6542 37.2743C79.5675 37.2086 79.3075 37.1909 79.1342 37.1341C79.0584 37.1092 78.997 37.079 78.9374 37.0418C78.6232 36.8465 78.217 36.4489 77.9516 36.3282C77.298 36.0318 76.8574 36.2395 76.4223 35.7176C76.332 35.6111 76.332 35.5259 76.4169 35.4904C76.4728 35.4673 76.7942 35.5383 76.9116 35.5987C77.1607 35.7282 77.6843 36.1667 77.8902 35.9395C78.0545 35.7566 77.4388 35.5081 77.1481 35.2206C77.0741 35.1478 77.0073 35.0147 77.0687 34.9632C77.0885 34.9472 77.1228 34.9525 77.1625 34.9632C77.4388 35.0413 77.9985 35.4105 78.3777 35.5365C78.5492 35.5933 78.6828 35.6004 78.82 35.6768C79.0024 35.7779 79.5657 36.5607 79.9016 36.4063C80.0875 36.3193 79.8149 36.1294 79.703 36.0282C79.5477 35.888 79.3328 35.4176 79.1505 35.1265C78.8742 34.6845 78.5853 34.4875 78.1791 34.3277C77.9805 34.2496 77.7512 34.1254 77.6284 34.0171C77.3575 33.7775 77.1517 33.3728 76.935 33.2112C76.8141 33.1207 76.675 33.0763 76.4909 32.9947C76.1984 32.8633 76.1316 32.8189 76.1857 32.7089C76.2471 32.5864 76.323 32.5829 76.5288 32.59C76.5613 32.59 76.5685 32.5917 76.5974 32.6006C77.1264 32.7604 78.0906 33.0231 78.1809 33.087C78.3705 33.2201 78.5005 33.4065 78.6864 33.568C79.1523 33.9745 79.712 34.1733 80.2717 34.1254C80.492 34.1076 80.7845 34.0739 80.7448 33.9088C80.7285 33.8378 80.6617 33.7739 80.5805 33.7224C80.3584 33.5804 79.8059 33.5006 79.5224 33.3355C79.1541 33.1207 79.1432 32.8775 78.9807 32.471C78.8525 32.148 78.5799 31.848 78.3091 31.6439C77.9443 31.3705 77.446 31.1451 77.1246 30.8682C77.0091 30.7688 76.5505 30.3037 76.7057 30.1865C76.7346 30.1652 76.7906 30.1723 76.8484 30.1865C77.1589 30.2611 77.7818 30.6569 78.2838 30.822C78.6575 30.9445 79.0891 30.9942 79.3093 31.1167C79.6073 31.2835 79.9268 31.6474 80.1453 31.7362C80.2266 31.7699 80.8477 31.9243 81.0373 31.7983C81.1528 31.722 81.0337 31.5817 80.9127 31.5036C80.7321 31.3883 80.4757 31.3528 80.3114 31.2409C80.2591 31.2054 80.2157 31.161 80.1778 31.1113C80.0893 30.9977 80.0243 30.854 79.925 30.7368C79.7535 30.538 79.2606 30.3179 79.0891 30.1173C78.9464 29.9505 78.8905 29.725 78.7587 29.5404C78.5474 29.2475 77.9714 28.8943 77.6392 28.7594C77.1932 28.5784 76.4963 28.3831 76.4963 28.3831C76.4963 28.3831 76.5017 28.305 76.518 28.2535C76.5595 28.131 76.8123 28.1044 76.9278 28.108C77.2528 28.1168 77.5218 28.3387 77.8577 28.5269C78.0707 28.6458 78.3795 28.7647 78.5835 28.8056C78.7767 28.8446 78.9627 28.8517 79.1667 28.8979C80.0063 29.0896 80.3313 29.4641 80.8621 29.1606C80.9903 29.0878 81.0228 28.9724 80.9073 28.9121C80.808 28.8606 80.6238 28.8748 80.4595 28.834C80.2717 28.7878 79.9521 28.5233 79.7174 28.3849C79.4502 28.2269 79.0385 28.1949 78.6503 27.9979C78.5474 27.9447 77.6681 27.0873 77.65 27.0216C77.632 26.9577 77.6789 26.9027 77.7602 26.9293C77.9118 26.9773 78.1466 27.2133 78.3596 27.3483C78.6991 27.5613 79.2787 27.6127 79.7156 27.5346C80.0532 27.4743 80.1634 27.4051 80.3782 27.4104C80.483 27.4139 80.8693 27.5577 80.956 27.6269C80.9723 27.6394 81.4796 28.2819 81.6132 28.1381C81.6241 28.1275 81.6331 28.1115 81.6403 28.108C81.6457 28.1044 81.6512 28.108 81.6566 28.108C81.6837 28.1062 81.6674 27.9748 81.6403 27.8914C81.5807 27.7121 81.1167 27.3252 80.956 27.224C80.1146 26.6968 79.8998 26.8086 78.9139 26.6329C78.477 26.5548 78.4391 26.3471 78.0419 25.8927C77.8992 25.7294 77.7457 25.5981 77.5796 25.5022C77.2312 25.3016 76.4331 25.0922 76.5613 24.8046C76.5992 24.7176 76.6443 24.7372 76.7942 24.7407C76.8267 24.7407 76.8339 24.7425 76.8628 24.7531C77.6212 24.9874 78.4734 25.3371 79.053 25.3478C79.7084 25.3602 80.1182 25.1916 80.5209 25.3637C80.7538 25.4632 81.0264 25.6779 81.2774 25.7667C81.4742 25.8359 81.8227 25.9051 81.783 25.7365C81.7414 25.5608 81.3839 25.4064 81.207 25.2874C81.0012 25.149 80.8278 24.9306 80.64 24.7904C80.4288 24.6342 79.9377 24.4531 79.6524 24.4176C79.4412 24.391 79.275 24.4301 79.0837 24.3875C78.9013 24.3449 78.1664 23.8283 77.7746 23.5976C77.6591 23.5301 77.5543 23.4822 77.381 23.4272C77.0343 23.3171 76.4132 23.1787 76.4132 23.1787C76.4132 23.1787 76.5793 23.0651 76.7346 22.9781C76.9874 22.8361 78.0166 22.5432 78.2639 22.5911C78.5131 22.6373 78.7334 22.8396 78.9103 22.7775C79.1089 22.7065 79.0855 22.5876 78.9735 22.4438C78.7496 22.158 78.3993 21.9699 78.1538 21.9397C77.6898 21.8829 76.1171 21.9965 75.9925 21.9397C75.9691 21.929 75.9474 21.9166 75.9239 21.9077C75.8589 21.8829 75.7831 21.8847 75.7091 21.8616C75.6368 21.8403 75.245 21.4285 74.9905 21.18C74.6925 20.8871 74.3098 20.7238 73.9721 20.683C73.741 20.6546 73.4377 20.6599 73.1723 20.6528C73.1398 20.6528 73.1343 20.6492 73.1127 20.6262C72.8364 20.3333 72.5475 19.9889 72.2785 19.7528C72.0203 19.5256 71.782 19.3996 71.41 19.0552C71.1952 18.8582 70.937 18.5884 70.937 18.5884C70.937 18.5884 70.6698 19.3499 70.5975 19.6765C70.5759 19.7741 70.5723 19.8345 70.5975 19.909C70.7275 20.2853 70.928 20.3492 70.686 20.5445C70.4928 20.7007 70.3032 20.6883 70.018 20.6333C69.655 20.5623 68.94 20.1824 68.532 20.0954C68.3478 20.0564 68.095 20.0457 67.8694 20.0652C67.4685 20.099 66.8095 20.2232 66.8095 20.2232C66.8095 20.2232 66.9034 20.3173 67.0009 20.3759C67.1688 20.477 67.5118 20.4593 67.6798 20.5463C67.7556 20.5853 67.7682 20.6262 67.705 20.6705C67.4992 20.8143 66.916 20.6759 66.7174 20.6865C66.6055 20.6918 66.0421 20.8356 65.9284 20.9652C65.9013 20.9954 65.8977 21.0291 65.9356 21.061C65.9482 21.0717 65.9537 21.0735 65.9862 21.0699C66.2714 21.0486 66.6614 20.9883 66.8438 21.0113C67.223 21.0557 67.8856 21.3592 68.1366 21.3681C68.263 21.3734 68.4507 21.3557 68.4525 21.4391C68.4525 21.4604 68.4345 21.4853 68.4056 21.5101C68.337 21.5705 68.2106 21.6415 68.2467 21.693C68.2539 21.7036 68.272 21.7072 68.2937 21.7089C68.5121 21.7267 68.7396 21.6415 68.783 21.7764C68.7902 21.803 68.7992 21.8385 68.7992 21.8385C68.7992 21.8385 68.1221 22.0906 67.6635 22.3124C67.1363 22.5681 66.898 22.7846 66.5441 22.9941C66.2913 23.1449 64.6446 23.8798 64.0524 24.0023C63.2309 24.1709 62.8102 24.107 62.3805 24.5206C62.0591 24.8295 61.5318 25.7472 61.4813 26.2193C61.4578 26.4412 61.5228 26.979 61.6239 27.1441C61.6907 27.2524 61.772 27.2737 61.9074 27.2737C62.0916 27.2737 62.8932 27.1299 63.1063 27.0571C63.4042 26.9542 63.8177 26.7341 63.9423 26.9577C64.0596 27.169 63.4963 27.3376 63.2796 27.382C62.9293 27.4565 62.3985 27.4991 62.4437 27.7689C62.4816 27.9979 62.8824 28.1239 63.09 28.1417C63.2417 28.1541 63.4006 28.1559 63.5631 28.1257C63.9368 28.06 64.4153 27.7973 64.7927 27.7068C64.9534 27.6695 65.235 27.6624 65.4391 27.6908C66.1884 27.7973 67.7141 28.2287 68.0896 28.2482C68.4562 28.2677 68.8498 28.2198 69.2307 28.2038C69.2632 28.2038 69.2687 28.2038 69.2921 28.2251C69.6966 28.5926 69.4564 29.0008 69.2253 29.5972C69.0556 30.0357 68.2684 31.69 68.0896 31.9847C67.9307 32.2474 67.7682 32.4852 67.5841 32.7391C67.3584 33.0515 66.4628 34.081 66.2841 34.2337C65.9789 34.4946 65.7731 34.6206 65.486 34.9845C64.9696 35.6413 64.8107 36.1543 64.1445 36.5448C63.8375 36.724 63.3916 36.8394 63.0557 36.9796C62.8373 37.0719 62.6007 37.2122 62.3046 37.4287C61.8731 37.7447 61.2249 38.2595 61.2249 38.2595C61.2249 38.2595 58.2873 36.4187 58.1573 36.2643C58.0706 36.1614 58.011 36.0655 57.928 35.9625C57.417 35.32 56.6893 34.9099 55.8931 34.7928C54.7014 34.6153 54.0966 35.7194 53.4791 36.7702C53.0313 37.5335 52.4355 38.492 52.1538 39.0422C51.9588 39.4221 51.7909 39.8037 51.585 40.1889C51.1535 40.9984 50.5523 41.8237 50.1334 42.5604C50.0341 42.7343 49.9456 42.9047 49.8968 43.0876C49.8102 43.4106 49.8517 43.7745 49.7542 44.1118C49.6603 44.4419 49.4202 44.7632 49.2974 45.0579C49.2234 45.2354 49.1837 45.4431 49.1439 45.759C49.0988 46.1229 49.0446 46.6554 49.0446 46.6554L49.0518 46.659ZM68.8967 19.6179C68.8841 19.6588 68.913 19.728 68.9437 19.783C69.0664 19.9996 69.6532 20.3137 69.9692 20.3634C70.1805 20.3972 70.2834 20.3599 70.2689 20.1309C70.2635 20.0333 70.222 19.9534 70.175 19.8682C69.9855 19.5221 69.3987 18.6434 69.3373 18.6115C69.2849 18.5849 69.2488 19.0339 69.1025 19.2718C69.0285 19.3907 68.9274 19.5238 68.8967 19.6215V19.6179Z" fill="#FFC800"/>
<path fill-rule="evenodd" clip-rule="evenodd" d="M74.3118 21.8028C74.3479 21.9217 74.1385 21.8933 74.1078 21.888C73.9778 21.8667 73.3982 21.73 73.5228 21.5152C73.6347 21.3218 73.9615 21.3963 74.0825 21.4939C74.162 21.5578 74.2775 21.691 74.3118 21.8046V21.8028Z" fill="white"/>
<path fill-rule="evenodd" clip-rule="evenodd" d="M74.9398 23.1431C74.9434 23.1662 74.9055 23.1964 74.873 23.2124C74.7339 23.2834 74.1995 23.0704 74.1381 22.955C74.0659 22.8201 74.1869 22.7384 74.3439 22.7153C74.5516 22.6852 74.6852 22.7722 74.8332 22.955C74.8802 23.0136 74.9326 23.0881 74.9416 23.1414L74.9398 23.1431Z" fill="white"/>
<path fill-rule="evenodd" clip-rule="evenodd" d="M70.4787 23.244C70.4841 23.2636 70.466 23.3008 70.448 23.3221C70.3577 23.4198 70.2494 23.1872 70.1735 23.1198C70.0977 23.0523 69.9966 23.0257 69.8901 22.9991C69.7781 22.9725 69.5651 22.9281 69.5958 22.818C69.6156 22.7506 69.7384 22.7293 69.816 22.7311C70.132 22.7399 70.3938 22.8979 70.4787 23.2423V23.244Z" fill="white"/>
<path fill-rule="evenodd" clip-rule="evenodd" d="M65.2155 24.3943C65.1975 24.3943 65.1794 24.4049 65.1632 24.3925C65.1379 24.373 65.1162 24.3055 65.1162 24.3055C65.1162 24.3055 65.6019 24.1298 65.9522 24.0055C66.2916 23.8848 66.8044 23.6452 66.9452 23.5405C67.0572 23.4588 67.5483 23.0168 67.6638 23.1003C67.7938 23.1926 67.5609 23.4571 67.4273 23.6026C66.8694 24.2115 66.3566 24.2452 65.2769 24.389C65.2444 24.3925 65.239 24.3943 65.2155 24.3961V24.3943Z" fill="white"/>
<path fill-rule="evenodd" clip-rule="evenodd" d="M68.9959 23.8796V23.8956L68.8334 23.8832C68.8009 23.8814 68.7955 23.8796 68.7793 23.8637C68.6114 23.727 68.828 23.4483 68.9725 23.3524C69.1169 23.2566 69.534 23.1767 69.6766 23.2122C69.9944 23.2921 70.3682 23.8193 70.2923 24.1423C70.2526 24.3163 70.1262 24.421 69.9926 24.3749C69.85 24.3269 69.6315 24.0518 69.4816 23.9258C69.4166 23.8707 69.3336 23.8441 69.2361 23.8477C69.1386 23.853 68.9996 23.8779 68.9996 23.8779L68.9959 23.8796Z" fill="white"/>
<path fill-rule="evenodd" clip-rule="evenodd" d="M74.3965 24.2686L75.7272 24.3893C75.7597 24.3928 75.7651 24.3946 75.7922 24.4123C75.8915 24.4816 75.9601 24.5188 75.9204 24.5632C75.8319 24.6608 75.3589 24.6129 75.2903 24.6253C75.0736 24.6644 74.3423 25.2235 74.2485 24.8117C74.225 24.7052 74.2575 24.4851 74.3117 24.3928C74.3442 24.3378 74.3965 24.2686 74.3965 24.2686Z" fill="white"/>
<path fill-rule="evenodd" clip-rule="evenodd" d="M62.9692 25.7258C63.0305 25.8519 62.9439 25.9317 62.8572 25.9726C62.7597 26.0205 62.6369 26.0755 62.5358 26.1589C62.2939 26.3595 62.1043 26.7057 61.9923 26.3755C61.9183 26.1589 62.1404 25.4969 62.4492 25.4294C62.6532 25.385 62.8608 25.4986 62.9692 25.7241V25.7258Z" fill="white"/>
<path fill-rule="evenodd" clip-rule="evenodd" d="M75.7162 26.1127C75.7361 26.1553 75.6783 26.1996 75.6584 26.205C75.5844 26.228 75.2269 26.1499 75.1818 26.1357C75.0843 26.1038 74.8207 26.0008 74.8803 25.889C74.9525 25.7523 75.2414 25.7275 75.3371 25.7541C75.4959 25.8002 75.635 25.9352 75.7162 26.1109V26.1127Z" fill="white"/>
<path fill-rule="evenodd" clip-rule="evenodd" d="M70.4714 26.1715L69.6264 27.2028C69.6065 27.2276 69.6011 27.2312 69.5722 27.2454C69.5126 27.2738 69.4567 27.3022 69.3899 27.3235C69.1876 27.3874 68.7886 27.3785 68.6406 27.2933C68.5647 27.2489 68.6026 27.185 68.6857 27.1229C68.9024 26.9614 69.2978 26.8655 69.6336 26.6419C69.9658 26.4218 70.2674 26.0721 70.4244 26.0224C70.4949 25.9993 70.5003 26.0277 70.4949 26.1111C70.493 26.1431 70.4912 26.1484 70.4696 26.1732L70.4714 26.1715Z" fill="white"/>
<path fill-rule="evenodd" clip-rule="evenodd" d="M65.1467 26.5261C65.2153 26.661 65.0004 26.842 64.9102 26.8722C64.7982 26.9095 64.6682 26.8083 64.6899 26.6699C64.7116 26.5225 64.9029 26.3859 65.0366 26.4373C65.0835 26.4551 65.1304 26.4941 65.1467 26.5243V26.5261Z" fill="white"/>
<path fill-rule="evenodd" clip-rule="evenodd" d="M71.6773 26.9045C71.7134 27.121 71.54 27.3678 71.3938 27.4476C71.2981 27.4991 70.7691 27.6908 70.6517 27.634C70.6318 27.6234 70.63 27.6056 70.6354 27.5808C70.6499 27.5275 71.6195 26.8193 71.6448 26.8423C71.6628 26.8601 71.6736 26.8867 71.6754 26.9045H71.6773Z" fill="white"/>
<path fill-rule="evenodd" clip-rule="evenodd" d="M75.8104 27.245C75.8483 27.3834 75.7328 27.3941 75.6208 27.3692C75.4312 27.3266 74.8191 27.1917 74.9112 26.9965C75.0069 26.7959 75.3807 26.8136 75.5179 26.9184C75.5847 26.9681 75.6569 27.0426 75.7309 27.1278C75.7653 27.1669 75.7996 27.2113 75.8104 27.245Z" fill="white"/>
<path fill-rule="evenodd" clip-rule="evenodd" d="M72.0076 27.508C72.0871 27.6696 71.8596 27.9269 71.7639 28.0051C71.7296 28.0335 71.6989 28.0512 71.6592 28.0672C71.5689 28.1045 70.6607 28.1293 70.5397 28.0974C70.4657 28.0796 70.4458 28.0512 70.509 27.9891C70.5921 27.9056 71.1771 27.8382 71.4876 27.7139C71.6429 27.6518 71.7494 27.5577 71.93 27.508C71.9625 27.4992 71.9986 27.4921 72.0058 27.508H72.0076Z" fill="white"/>
<path fill-rule="evenodd" clip-rule="evenodd" d="M75.953 28.4538H75.9367V28.4698C75.9367 28.4698 75.8536 28.4698 75.7796 28.4698C75.5738 28.4662 74.8371 28.2994 74.9906 28.0296C75.0953 27.8467 75.4582 27.8485 75.628 27.9621C75.7182 28.0225 75.8157 28.1467 75.8898 28.2266C75.9204 28.2603 75.9457 28.2852 75.953 28.3437C75.9584 28.3881 75.953 28.452 75.953 28.452V28.4538Z" fill="white"/>
<path fill-rule="evenodd" clip-rule="evenodd" d="M75.9364 29.6787C75.9726 29.8029 75.7992 29.7923 75.7324 29.7781C75.6151 29.7532 74.8062 29.6006 74.9578 29.3432C75.0878 29.1231 75.458 29.1621 75.6133 29.2757C75.7613 29.384 75.8895 29.5136 75.9364 29.6787Z" fill="white"/>
<path fill-rule="evenodd" clip-rule="evenodd" d="M75.9997 31.0117C76.0304 31.0668 75.9582 31.1307 75.942 31.136C75.774 31.1928 75.0121 30.8804 74.9814 30.8626C74.8297 30.7721 74.7774 30.6798 74.9327 30.5467C75.0916 30.41 75.4166 30.426 75.5881 30.5165C75.747 30.5981 75.8806 30.8005 75.9979 31.0135L75.9997 31.0117Z" fill="white"/>
<path fill-rule="evenodd" clip-rule="evenodd" d="M71.551 30.8731C71.5601 30.9494 71.5583 31.0684 71.551 31.1837C71.5402 31.3488 71.273 32.2932 71.1881 32.4653C70.9137 33.0209 70.363 33.8019 69.8791 34.3558C69.4981 34.7924 69.1226 35.1492 69.0594 35.0143C69.0413 34.977 69.852 33.7008 70.3052 32.9978C70.4803 32.728 70.5977 32.4973 70.6844 32.2541C70.957 31.4749 70.9877 30.9477 71.2838 30.5412C71.338 30.4666 71.4337 30.4329 71.477 30.5128C71.5131 30.5785 71.542 30.7826 71.551 30.8749V30.8731Z" fill="white"/>
<path fill-rule="evenodd" clip-rule="evenodd" d="M75.7634 32.2063C75.7887 32.2596 75.7219 32.3111 75.7057 32.3146C75.5847 32.3448 75.0791 32.1868 75.0214 32.1602C74.792 32.0483 74.6711 31.9259 74.8697 31.7874C75.108 31.6223 75.4583 31.7466 75.6208 31.9649C75.6786 32.043 75.7327 32.1442 75.7634 32.2063Z" fill="white"/>
<path fill-rule="evenodd" clip-rule="evenodd" d="M75.5574 33.2768C75.6134 33.417 75.4003 33.3939 75.3371 33.3851C75.1602 33.3602 74.669 33.22 74.7539 33.0229C74.8261 32.8543 75.1349 32.8614 75.2739 32.936C75.3371 32.9697 75.5104 33.1579 75.5574 33.2768Z" fill="white"/>
<path fill-rule="evenodd" clip-rule="evenodd" d="M75.2272 34.4074C75.0412 34.3878 74.7956 34.3488 74.6747 34.2139C74.6043 34.134 74.6512 34.0435 74.8011 34.0044C74.8967 33.9796 75.0105 34.0133 75.0954 34.0665C75.182 34.1216 75.2867 34.2547 75.2904 34.3151C75.2904 34.3364 75.2867 34.3577 75.2633 34.3665C75.2488 34.3719 75.2254 34.3772 75.2272 34.3914C75.2272 34.3985 75.2308 34.4074 75.2272 34.4074Z" fill="white"/>
<path fill-rule="evenodd" clip-rule="evenodd" d="M75.0048 35.2914C75.0211 35.3251 74.9867 35.3588 74.9669 35.3695C74.8333 35.4316 74.5029 35.2825 74.4361 35.1778C74.3999 35.121 74.4198 35.0659 74.492 35.0287C74.6798 34.9363 74.9145 35.0979 75.003 35.2914H75.0048Z" fill="white"/>
<path fill-rule="evenodd" clip-rule="evenodd" d="M56.1711 35.6946C56.1711 35.6946 56.1657 35.7585 56.1549 35.7975C56.1405 35.8525 56.117 35.8579 56.0809 35.865C55.7649 35.936 55.5555 35.9679 55.393 35.8685C55.3009 35.8117 55.3605 35.7283 55.4832 35.6484C55.68 35.5188 55.9635 35.4407 56.1242 35.6413C56.1332 35.652 56.1405 35.6626 56.1459 35.675C56.1531 35.691 56.1549 35.6946 56.1585 35.6946H56.1693H56.1711Z" fill="white"/>
<path fill-rule="evenodd" clip-rule="evenodd" d="M74.7542 36.0974C74.765 36.1187 74.7578 36.1649 74.738 36.1897C74.6802 36.2696 74.3606 36.1294 74.2866 36.0814C74.2162 36.0353 74.1746 35.982 74.2017 35.9217C74.2703 35.7655 74.4924 35.8116 74.5881 35.8951C74.6495 35.9483 74.7235 36.0388 74.7542 36.0974Z" fill="white"/>
<path fill-rule="evenodd" clip-rule="evenodd" d="M74.3588 36.9105C74.4165 36.9868 74.431 37.0542 74.3479 37.0755C74.2811 37.0915 74.0211 37.0152 73.9796 36.9406C73.9272 36.8448 74.0536 36.7915 74.1367 36.7951C74.2161 36.7986 74.301 36.8359 74.357 36.9105H74.3588Z" fill="white"/>
<path fill-rule="evenodd" clip-rule="evenodd" d="M68.3644 37.8032C68.3987 37.8529 68.3355 37.9079 68.3265 37.9115C68.2001 37.9718 68.0881 37.8547 67.8444 37.7251C67.5194 37.5529 66.6978 37.4748 66.4559 37.4624C66.2681 37.4517 65.4683 37.5529 65.3509 37.6026C65.1288 37.6967 64.7804 37.8973 64.8454 37.5724C64.923 37.189 66.0966 37.0541 66.3602 37.0452C66.9885 37.0257 67.6476 37.1624 68.1838 37.6186C68.256 37.6789 68.3265 37.7517 68.3644 37.805V37.8032Z" fill="white"/>
<path fill-rule="evenodd" clip-rule="evenodd" d="M53.9773 37.4944C53.9809 37.5246 53.9827 37.5707 53.9773 37.6187C53.9701 37.6932 53.2081 38.8736 53.0312 39.0831C52.9102 39.2268 52.7206 39.4381 52.6376 39.3014C52.5346 39.1328 52.8235 38.6251 52.921 38.4547C53.0203 38.2807 53.479 37.3648 53.7733 37.3382C53.896 37.3275 53.9592 37.3506 53.9791 37.4926L53.9773 37.4944Z" fill="white"/>
<path fill-rule="evenodd" clip-rule="evenodd" d="M74.0119 37.7976C74.0354 37.842 73.9939 37.8864 73.9704 37.8953C73.8982 37.9219 73.696 37.8562 73.6653 37.787C73.649 37.7497 73.6725 37.7 73.723 37.6787C73.7953 37.6468 73.9596 37.7 74.0119 37.7976Z" fill="white"/>
<path fill-rule="evenodd" clip-rule="evenodd" d="M57.7094 39.6174C57.4133 39.3441 57.0143 38.8915 56.9746 38.579C56.9547 38.4211 57.0017 38.3643 57.1389 38.4086C57.361 38.4814 58.0669 39.3104 57.9369 39.566C57.9297 39.5819 57.7979 39.7009 57.7094 39.6192V39.6174Z" fill="white"/>
<path fill-rule="evenodd" clip-rule="evenodd" d="M73.6491 38.6411C73.6744 38.6837 73.6239 38.728 73.6076 38.7334C73.5318 38.7618 73.3494 38.705 73.3187 38.6144C73.2953 38.5452 73.3855 38.4902 73.4614 38.5008C73.5264 38.5097 73.6094 38.5718 73.651 38.6411H73.6491Z" fill="white"/>
<path fill-rule="evenodd" clip-rule="evenodd" d="M61.3874 39.6774L59.9502 41.6974C59.9322 41.7223 59.9285 41.7258 59.9123 41.7276C59.6956 41.7525 60.0315 41.1365 60.129 40.9501C60.4179 40.3981 60.649 39.8762 61.066 39.5851C61.1798 39.507 61.4109 39.3899 61.4217 39.5177C61.4235 39.5443 61.4181 39.5816 61.4127 39.6118C61.4073 39.6419 61.4037 39.649 61.3856 39.6757L61.3874 39.6774Z" fill="white"/>
<path fill-rule="evenodd" clip-rule="evenodd" d="M53.9466 41.5096C53.9539 41.5273 53.9521 41.5575 53.9466 41.5877C53.9304 41.6853 53.6957 42.09 53.5584 42.1308C53.4501 42.1628 53.4339 42.0439 53.4591 41.9285C53.4971 41.7492 53.6036 41.5078 53.7751 41.4315C53.8527 41.3977 53.9159 41.4226 53.9484 41.5096H53.9466Z" fill="white"/>
<path fill-rule="evenodd" clip-rule="evenodd" d="M50.6807 42.5639C50.7114 42.7467 50.4406 43.3041 50.3268 43.3698C50.2582 43.4088 50.1878 43.3929 50.1589 43.329C50.0506 43.0822 50.3467 42.6136 50.5471 42.5018C50.5507 42.5018 50.6644 42.4752 50.6789 42.5639H50.6807Z" fill="white"/>
<path fill-rule="evenodd" clip-rule="evenodd" d="M75.1908 48.5406C75.2251 48.5814 75.0337 48.5441 74.8785 48.4873C74.4993 48.3471 73.2679 47.2164 73.1433 47.0851C72.4933 46.4017 71.7675 44.9532 71.614 43.929C71.5526 43.5208 71.54 43.1018 71.8668 43.1693C71.93 43.1817 71.9643 43.2172 71.9932 43.2687C72.0907 43.4409 72.1954 44.3479 72.3561 44.9213C72.515 45.4893 73.0711 46.3875 73.4611 46.8365C73.9522 47.401 74.7972 48.0826 75.1926 48.5424L75.1908 48.5406Z" fill="white"/>
<path fill-rule="evenodd" clip-rule="evenodd" d="M58.4102 44.7029C58.4247 44.7775 58.3597 44.8343 58.3416 44.8431C58.3001 44.8609 58.2513 44.8644 58.1899 44.8591C58.0997 44.8502 56.0504 43.7817 56.0287 43.732C56.0088 43.684 56.0197 43.613 56.0973 43.5722C56.3284 43.4479 57.2619 43.9254 57.4948 44.0532C57.5219 44.0674 58.2351 44.4526 58.3633 44.6177C58.3849 44.6461 58.4066 44.6798 58.4102 44.7047V44.7029Z" fill="white"/>
<path fill-rule="evenodd" clip-rule="evenodd" d="M53.6053 45.1929C53.6089 45.2639 53.5981 45.3686 53.5981 45.4787C53.5999 45.839 53.9556 47.2164 53.9141 47.314C53.8924 47.3655 53.8328 47.4028 53.7461 47.3549C53.6198 47.2856 53.4139 46.8685 53.3778 46.7656C53.2966 46.5437 53.1449 45.3633 53.2984 45.0296C53.3327 44.9532 53.4085 44.9142 53.497 44.9674C53.5367 44.9905 53.5999 45.0952 53.6053 45.1929Z" fill="white"/>
<path fill-rule="evenodd" clip-rule="evenodd" d="M49.8608 45.7111C49.9005 45.8922 49.794 46.2614 49.6658 46.3466C49.5737 46.4087 49.4798 46.2791 49.4509 46.1602C49.4202 46.0306 49.4798 45.53 49.6875 45.5407C49.7651 45.5442 49.8409 45.6188 49.8608 45.7111Z" fill="white"/>
<path fill-rule="evenodd" clip-rule="evenodd" d="M68.7649 53.5888C68.783 53.6226 68.6782 53.6119 68.5843 53.5888C68.4778 53.5622 68.0517 53.2977 67.9127 53.1699C67.4089 52.7102 66.6235 52.1564 66.0457 51.6576C65.7659 51.4162 65.5348 51.1872 65.2892 50.9298C65.1935 50.8286 63.267 48.7217 63.081 48.0205C63.0449 47.8838 63.0593 47.7791 63.1912 47.804C63.2489 47.8146 63.3031 47.8537 63.3573 47.8963C63.5992 48.0897 65.2296 50.1665 66.0855 51.0754C66.5639 51.583 67.5082 52.3179 68.3189 53.0812C68.5013 53.2534 68.6981 53.4575 68.7667 53.5871L68.7649 53.5888Z" fill="white"/>
<path fill-rule="evenodd" clip-rule="evenodd" d="M88.5249 49.2061C88.5249 49.1866 88.5574 49.1653 88.5826 49.1528C88.8607 49.0108 88.9149 50.3847 88.9185 50.6261C88.9401 52.0249 88.8101 53.2443 87.9399 54.2312C87.7069 54.4957 86.8024 55.3957 86.4575 55.5253C86.4124 55.543 86.3708 55.5519 86.3419 55.5235C86.3311 55.5128 86.3239 55.4969 86.3149 55.4951C86.3094 55.4933 86.3022 55.4951 86.2986 55.4951C86.286 55.4933 86.2986 55.4472 86.3149 55.4028C86.369 55.2554 87.2917 54.3697 87.6871 53.8762C88.2576 53.1644 88.5465 51.8616 88.57 51.0007C88.5881 50.3936 88.5194 49.657 88.5231 49.2079L88.5249 49.2061Z" fill="white"/>
<path fill-rule="evenodd" clip-rule="evenodd" d="M75.1476 51.9451C75.1566 51.97 75.1386 52.0108 75.1169 52.0481C75.0393 52.1759 74.3441 52.5433 74.234 52.696C74.0119 53.0031 74.1455 53.7095 73.7916 53.5586C73.3402 53.3652 73.705 52.5167 74.0968 52.1794C74.3008 52.0037 74.8713 51.7499 75.0519 51.8546C75.0934 51.8777 75.1368 51.9167 75.1458 51.9469L75.1476 51.9451Z" fill="white"/>
<path fill-rule="evenodd" clip-rule="evenodd" d="M56.3592 53.4326C56.3592 53.4326 56.3484 53.5054 56.3285 53.5497C56.287 53.6385 56.1353 53.6527 56.0757 53.6332C55.9367 53.5888 55.7291 53.2586 55.6821 53.1219C55.6605 53.0616 55.6496 52.9941 55.6821 52.9622C55.693 52.9515 55.7092 52.9444 55.7128 52.9356C55.7146 52.9302 55.7128 52.9249 55.7128 52.9196C55.7164 52.9001 55.7832 52.9036 55.8392 52.9196C55.9656 52.9551 56.3159 53.2125 56.3412 53.4024C56.3448 53.429 56.3448 53.4326 56.3502 53.4326H56.361H56.3592Z" fill="white"/>
<path fill-rule="evenodd" clip-rule="evenodd" d="M81.5987 57.1849C81.6529 57.7813 81.4399 58.4825 81.1726 58.8215C81.0625 58.96 80.9072 59.0363 80.826 58.8978C80.7935 58.8428 80.7953 58.7487 80.8097 58.6582C80.8494 58.431 80.9794 58.234 81.0155 57.9908C81.0842 57.5186 80.7953 56.9133 81.1726 56.7341C81.2972 56.6755 81.4724 56.8033 81.5518 56.9915C81.5771 57.0536 81.5951 57.1352 81.5987 57.1832V57.1849Z" fill="white"/>
<path fill-rule="evenodd" clip-rule="evenodd" d="M73.4127 60.1457C73.3532 60.419 73.1455 60.8717 73.0823 61.216C73.0534 61.3758 73.0552 61.5125 73.0661 61.6651C73.0859 61.9261 73.1455 62.3201 73.0191 62.4089C72.8837 62.5047 72.7736 62.2757 72.7194 62.0361C72.5822 61.4237 72.5804 60.8468 72.8458 60.4155C72.9343 60.2717 73.1943 59.9504 73.3405 60.0356C73.3784 60.0569 73.4218 60.112 73.4145 60.1439L73.4127 60.1457Z" fill="white"/>
<path fill-rule="evenodd" clip-rule="evenodd" d="M71.0941 65.5473V65.558C71.0941 65.558 71.0183 65.558 70.9749 65.542C70.8413 65.4976 70.984 65.3396 71.0562 65.2793C71.1519 65.1959 71.3794 65.0894 71.4263 65.2953C71.4299 65.3095 71.4299 65.3254 71.4281 65.3396C71.4263 65.3592 71.4227 65.3645 71.3974 65.384C71.2783 65.4728 71.2602 65.4852 71.1284 65.5313C71.0977 65.542 71.0941 65.5438 71.0941 65.5473Z" fill="white"/>
<path fill-rule="evenodd" clip-rule="evenodd" d="M64.3412 65.8366C64.3647 65.8739 64.3231 65.9183 64.3033 65.9289C64.2148 65.9769 64.0126 65.9769 63.9476 65.913C63.8465 65.8153 63.9638 65.7781 64.0577 65.7585C64.1949 65.7284 64.278 65.7301 64.3412 65.8366Z" fill="white"/>
<path fill-rule="evenodd" clip-rule="evenodd" d="M68.8824 66.0067C68.9727 66.0795 68.9239 66.1487 68.8625 66.1931C68.6694 66.3298 67.6943 66.3244 67.4813 66.3333C66.8746 66.3546 66.3474 66.367 65.8256 66.1168C65.7552 66.083 65.6053 65.9552 65.6685 65.8487C65.6775 65.8345 65.692 65.8203 65.7046 65.8097C65.7227 65.7937 65.7299 65.7919 65.7606 65.7955C66.4449 65.8683 67.3585 65.9961 67.8135 66.0085C68.1566 66.0191 68.4906 66.0014 68.8282 65.9943C68.8607 65.9943 68.8662 65.9943 68.8824 66.0103V66.0067Z" fill="white"/>
<path fill-rule="evenodd" clip-rule="evenodd" d="M59.9719 66.069C60.0351 66.2056 59.7787 66.3814 59.7029 66.4098C59.5548 66.4666 59.4718 66.4311 59.3634 66.3477C59.2208 66.2376 59.2569 66.1329 59.4194 66.053C59.5151 66.0068 59.8437 65.9625 59.8925 65.9909C59.9286 66.0122 59.9593 66.0441 59.9719 66.069Z" fill="white"/>
<path fill-rule="evenodd" clip-rule="evenodd" d="M76.567 69.759C76.567 69.759 76.5724 69.7999 76.567 69.8371C76.558 69.8993 76.4551 70.02 76.3937 70.0395C76.372 70.0466 76.3503 70.0502 76.3467 70.0697C76.3467 70.0768 76.3467 70.0857 76.3467 70.0857H76.2709C76.2384 70.0857 76.233 70.0857 76.2203 70.075C76.1337 70.0147 76.1535 69.8496 76.1734 69.807C76.2294 69.6845 76.4352 69.5922 76.5255 69.7076C76.5327 69.7182 76.5417 69.7289 76.5453 69.7413C76.5508 69.7573 76.5526 69.759 76.558 69.759H76.5688H76.567Z" fill="white"/>
<path fill-rule="evenodd" clip-rule="evenodd" d="M74.5952 70.613C74.2865 70.9911 72.5712 72.7537 72.2191 72.8301C72.1758 72.8389 72.118 72.839 72.1036 72.7893C72.0765 72.7023 72.2426 72.4751 72.2913 72.4129C72.4087 72.2585 74.1402 70.6574 74.2395 70.613C74.3063 70.5829 74.4526 70.5083 74.5176 70.5349C74.5555 70.5509 74.6133 70.5917 74.597 70.613H74.5952Z" fill="white"/>
<path fill-rule="evenodd" clip-rule="evenodd" d="M70.6048 73.6147V73.604C70.6048 73.604 70.6716 73.5952 70.7149 73.604C70.7961 73.62 70.8178 73.7496 70.7943 73.8117C70.751 73.9253 70.4693 74.0957 70.3682 74.117C70.2491 74.1419 70.2057 74.0727 70.2418 73.9466C70.2834 73.7993 70.4134 73.746 70.5759 73.6395C70.603 73.6218 70.6048 73.62 70.6048 73.6147Z" fill="white"/>
<path fill-rule="evenodd" clip-rule="evenodd" d="M67.7522 76.9554L67.5482 76.9661C67.5157 76.9678 67.5103 76.9661 67.4886 76.9519C67.4634 76.9341 67.4363 76.9057 67.4254 76.8791C67.4182 76.8631 67.4182 76.8613 67.4128 76.8613H67.402C67.402 76.8613 67.3929 76.7602 67.402 76.6909C67.4182 76.5596 67.7017 76.2436 67.7559 76.1939C67.9418 76.0235 68.2434 75.949 68.3011 76.2561C68.3427 76.4726 68.1765 76.4247 67.9617 76.5507C67.9346 76.5667 67.9165 76.5827 67.9057 76.6075C67.8804 76.6679 67.9057 76.7744 67.875 76.8454C67.8606 76.8773 67.8335 76.9022 67.81 76.927C67.7884 76.9501 67.7829 76.9536 67.7504 76.9554H67.7522Z" fill="white"/>
<path fill-rule="evenodd" clip-rule="evenodd" d="M102.951 21.8544C102.967 20.0066 102.991 18.1587 103.02 16.3109L69.9366 10.4692L36.9834 16.3287V17.4327C37.0033 18.8279 37.0249 20.3012 37.0466 21.7976L38.4333 21.187C59.1033 12.0916 80.5623 12.0615 101.214 21.0964L102.951 21.8562V21.8544Z" fill="#E10000"/>
<path fill-rule="evenodd" clip-rule="evenodd" d="M12.3916 130.482V128.103H13.7382C14.4084 128.103 15.755 127.969 15.755 126.382V112.089C15.755 111.228 15.6867 109.179 14.005 109.179H12.4599L14.2098 106.134H117.749V109.179H22.488C21.613 109.179 20.4712 109.38 20.4712 111.1V115.603C20.676 116.133 21.4827 116.328 21.8861 116.328C22.2894 116.328 23.7043 116.261 23.7043 114.077H25.7211V121.423H23.7043C23.7043 120.764 22.9596 119.653 21.9543 119.568C21.1476 119.501 20.4712 119.769 20.4712 120.825V126.382C20.4712 126.98 21.2097 128.103 22.9596 128.103H24.1697V130.482H12.3916Z" fill="#231F20"/>
<path fill-rule="evenodd" clip-rule="evenodd" d="M72.1447 112.619C72.1447 113.15 72.8149 113.681 73.2245 113.809C73.6961 113.479 76.1845 112.088 78.1393 112.088C80.094 112.088 81.0993 113.083 81.0993 114.602V121.88H76.3893V116.255C76.3893 115.529 76.1845 114.998 75.5143 114.931C74.8441 114.864 73.0942 116.255 72.6226 116.914V126.974C72.6226 127.901 73.5658 128.56 74.3725 128.56V130.482H66.1626V128.499C66.9693 128.499 67.8443 128.237 67.9126 127.041V115.859C67.9126 115.529 67.3727 114.602 66.1626 114.602V112.619H72.1509H72.1447Z" fill="#231F20"/>
<path fill-rule="evenodd" clip-rule="evenodd" d="M128.491 112.619H120.281V114.602C121.491 114.602 122.031 115.529 122.031 115.859V127.041C121.962 128.231 121.087 128.499 120.281 128.499V130.482H128.491V128.56C127.684 128.56 126.741 127.901 126.741 126.974V115.993C126.741 115.2 127.616 114.602 128.491 114.602V112.619Z" fill="#231F20"/>
<path fill-rule="evenodd" clip-rule="evenodd" d="M53.9748 112.619C53.9748 113.15 54.645 113.681 55.0546 113.809C55.5262 113.479 58.0146 112.088 59.9693 112.088C61.9241 112.088 62.9294 113.083 62.9294 114.602V121.88H58.2194V116.255C58.2194 115.529 58.0146 114.998 57.3444 114.931C56.6742 114.864 54.9243 116.255 54.4526 116.914V126.974C54.4526 127.901 55.3959 128.56 56.2026 128.56V130.482H47.9927V128.499C48.7994 128.499 49.6744 128.237 49.7426 127.041V115.859C49.7426 115.529 49.2028 114.602 47.9927 114.602V112.619H53.981H53.9748Z" fill="#231F20"/>
<path fill-rule="evenodd" clip-rule="evenodd" d="M108.571 112.619C108.571 113.15 109.241 113.681 109.651 113.809C110.122 113.479 112.611 112.088 114.566 112.088C116.52 112.088 117.526 113.083 117.526 114.602V121.88H112.816V116.255C112.816 115.529 112.611 114.998 111.941 114.931C111.27 114.864 109.52 116.255 109.049 116.914V126.974C109.049 127.901 109.992 128.56 110.799 128.56V130.482H102.589V128.499C103.396 128.499 104.271 128.237 104.339 127.041V115.859C104.339 115.529 103.799 114.602 102.589 114.602V112.619H108.577H108.571Z" fill="#231F20"/>
<path fill-rule="evenodd" clip-rule="evenodd" d="M44.431 124.924H39.721V126.712C39.721 127.438 39.5844 128.963 37.3629 128.963C35.1413 128.963 34.4711 127.505 34.4711 126.45V122.679C34.4711 122.35 34.7379 121.886 35.2095 121.886H44.431V117.055C44.431 114.871 43.9593 114.212 43.0161 113.284C42.0729 112.357 38.7777 112.095 37.2946 112.095C33.5278 112.095 32.3116 112.625 31.238 113.486C30.1582 114.346 29.7549 116.133 29.7549 117.457V124.937C29.7549 126.919 30.1582 128.31 31.4366 129.567C32.7149 130.824 36.6182 130.824 37.4249 130.824C38.2316 130.824 40.9248 130.891 42.8734 129.5C44.8281 128.109 44.4186 124.937 44.4186 124.937L44.431 124.924ZM34.4711 116.719C34.4711 115.658 34.8062 114.071 37.1643 114.071C39.5224 114.071 39.721 115.792 39.721 116.719V119.098C39.721 119.495 39.3859 119.891 38.9142 119.891H35.2778C34.8744 119.891 34.4711 119.562 34.4711 119.165V116.719Z" fill="#231F20"/>
<path fill-rule="evenodd" clip-rule="evenodd" d="M98.4064 126.974V117.048C98.4064 115.529 98.3381 113.937 96.7247 112.815C95.1113 111.692 92.4863 111.753 91.4748 111.753C90.4633 111.753 87.0999 111.753 85.5547 113.473C84.0096 115.194 84.2764 116.847 84.2764 117.512H88.6823C88.6823 117.512 88.9864 115.261 89.5883 114.669C90.1965 114.071 91.8099 113.412 93.0572 114.468C93.5164 114.858 93.6964 115.359 93.6964 115.926V118.769C93.6964 119.031 93.4296 119.428 93.0883 119.428C93.0883 119.428 86.9634 119.562 85.8898 120.355C84.8101 121.148 83.873 121.679 83.873 124.589C83.873 127.499 84.6115 128.627 85.4865 129.219C86.3615 129.817 86.7648 130.476 90.7364 130.476H100.156V128.554C99.3496 128.554 98.4064 127.895 98.4064 126.968V126.974ZM93.6964 128.097C93.6964 128.261 93.4296 128.493 93.2248 128.493H90.9039C89.2532 128.493 88.7816 127.102 88.7816 126.242V123.692C88.7816 121.209 91.4066 121.276 92.4491 121.276C93.4916 121.276 93.6964 122.136 93.6964 122.698V128.091V128.097Z" fill="#231F20"/>
<path fill-rule="evenodd" clip-rule="evenodd" d="M124.079 109.148C126.437 109.148 128.342 108.446 128.342 107.574C128.342 106.702 126.431 106 124.079 106C121.727 106 119.815 106.702 119.815 107.574C119.815 108.446 121.727 109.148 124.079 109.148Z" fill="#231F20"/>
</svg>
