<svg width="199" height="140" viewBox="0 0 199 140" fill="none" xmlns="http://www.w3.org/2000/svg">
<g clip-path="url(#clip0_19_332)">
<path d="M175.401 118.699H170.477V131.003H175.401V123.27H193.328V131.003H198.257V118.756H175.401V118.699ZM93.4376 115.495H111.006C113.675 114.827 115.614 113.075 116.163 111.105H88.5134V123.3H111.365V126.478H93.6699C91.06 127.36 89.1427 128.868 88.6021 130.812L88.5134 131.003H116.289V118.895H93.4376V115.491V115.495ZM136.869 126.343V111.101H131.928V131.003H154.5V130.816C156.963 129.908 158.736 128.324 159.252 126.463L136.869 126.339V126.343ZM174.763 115.495H193.831C196.496 114.617 198.459 112.985 199 111.003H169.598C170.13 112.985 172.107 114.617 174.763 115.495ZM49.5589 115.495H68.6223C71.2871 114.617 73.234 112.985 73.7915 111.003H44.3897C44.9261 112.985 46.8941 114.617 49.5589 115.495ZM49.5589 130.966H68.6223C71.2871 130.095 73.234 128.441 73.7915 126.467H44.3897C44.9261 128.437 46.8941 130.095 49.5589 130.966ZM0 111.15C0.574351 113.105 2.51701 114.745 5.15649 115.615H13.1805L13.5902 115.773V131H18.5946V115.773L19.0423 115.615H27.0621C29.6931 114.745 31.6442 113.105 32.2059 111.15V111.101H0V111.15ZM49.5589 123.296H68.6223C71.2871 122.437 73.234 120.771 73.7915 118.816H44.3897C44.9261 120.771 46.8941 122.437 49.5589 123.296Z" fill="#142733"/>
</g>
<path d="M99.8348 82.2604L109.019 29.4615C117.773 29.4615 120.535 30.4448 120.936 34.4476C120.936 34.4476 126.813 32.2106 129.775 27.6629C118.214 22.1892 106.601 21.9434 106.601 21.9434L99.8228 30.3792H99.8388L93.0602 21.9434C93.0602 21.9434 81.4432 22.1892 69.8862 27.6629C72.8486 32.2065 78.7253 34.4476 78.7253 34.4476C79.1262 30.4407 81.8841 29.4615 90.5829 29.4533L99.8428 82.2604H99.8348Z" fill="black"/>
<path d="M99.8308 19.5057C109.175 19.432 119.874 20.9847 130.822 25.8603C132.285 23.1685 132.658 21.9803 132.658 21.9803C120.688 17.1376 109.48 15.4824 99.8268 15.4414C90.178 15.4824 78.9698 17.1376 67 21.9803C67 21.9803 67.5331 23.4471 68.84 25.8603C79.7876 20.9847 90.4866 19.432 99.8308 19.5057Z" fill="black"/>
<defs>
<clipPath id="clip0_19_332">
<rect width="199" height="20" fill="white" transform="translate(0 111)"/>
</clipPath>
</defs>
</svg>
