<svg width="24" height="24" viewBox="0 0 24 24" fill="none" xmlns="http://www.w3.org/2000/svg">
<rect width="24" height="24" rx="6" fill="#33CCFF"/>
<path d="M17.9561 8.17311C17.5598 8.34366 17.1432 8.46241 16.7165 8.52645C16.916 8.49225 17.2095 8.13322 17.3263 7.9879C17.5038 7.76869 17.6391 7.51845 17.7253 7.24988C17.7253 7.22994 17.7452 7.20144 17.7253 7.1872C17.7152 7.18171 17.7039 7.17883 17.6925 7.17883C17.681 7.17883 17.6698 7.18171 17.6597 7.1872C17.1965 7.43807 16.7034 7.62954 16.1922 7.75709C16.1744 7.76253 16.1555 7.76302 16.1374 7.7585C16.1193 7.75398 16.1028 7.74463 16.0897 7.73144C16.0499 7.68407 16.007 7.63933 15.9614 7.59752C15.7529 7.41072 15.5164 7.25784 15.2605 7.14445C14.915 7.00271 14.5418 6.94133 14.1691 6.96494C13.8075 6.98777 13.4544 7.08477 13.1319 7.24988C12.8143 7.42396 12.5352 7.66046 12.3113 7.94516C12.0757 8.23818 11.9057 8.57824 11.8126 8.94247C11.7358 9.28892 11.7271 9.647 11.787 9.99677C11.787 10.0566 11.787 10.0652 11.7357 10.0566C9.704 9.75742 8.03706 9.0365 6.67501 7.48924C6.61517 7.42085 6.58383 7.42085 6.53539 7.48924C5.9427 8.38967 6.23049 9.81441 6.97135 10.5182C7.07109 10.6123 7.17367 10.7034 7.28195 10.7889C6.94227 10.7648 6.61088 10.6728 6.30743 10.5182C6.25044 10.4812 6.21909 10.5011 6.21624 10.5695C6.20817 10.6643 6.20817 10.7597 6.21624 10.8545C6.2757 11.3088 6.45477 11.7393 6.73513 12.1017C7.0155 12.4642 7.3871 12.7457 7.81195 12.9175C7.91551 12.9618 8.02343 12.9953 8.13394 13.0172C7.81948 13.0791 7.49696 13.0888 7.17937 13.0457C7.11098 13.0315 7.08533 13.0685 7.11098 13.134C7.52985 14.2738 8.43883 14.6215 9.10561 14.8152C9.19679 14.8295 9.28797 14.8295 9.39055 14.8523C9.39055 14.8523 9.39055 14.8523 9.37346 14.8694C9.17684 15.2284 8.38184 15.4706 8.01711 15.596C7.35138 15.8351 6.64159 15.9265 5.937 15.8638C5.82587 15.8467 5.80022 15.8496 5.77173 15.8638C5.74323 15.8781 5.77173 15.9094 5.80307 15.9379C5.94554 16.032 6.08802 16.1146 6.23619 16.1944C6.6773 16.435 7.14364 16.6261 7.62673 16.7643C10.1286 17.4538 12.9438 16.9466 14.8216 15.0802C16.2977 13.6156 16.8163 11.5953 16.8163 9.5722C16.8163 9.49527 16.9103 9.44968 16.9644 9.40978C17.3379 9.11882 17.6671 8.7752 17.9418 8.38967C17.9894 8.3322 18.0138 8.25903 18.0102 8.18451C18.0102 8.14177 18.0102 8.15032 17.9561 8.17311Z" fill="white"/>
</svg>
