<svg width="24" height="24" viewBox="0 0 24 24" fill="none" xmlns="http://www.w3.org/2000/svg">
<rect width="24" height="24" rx="6" fill="#00D95F"/>
<path d="M6.00005 17.5201L6.86102 14.3216C6.16667 13.0757 5.94606 11.6217 6.23969 10.2266C6.53332 8.83153 7.32148 7.58884 8.45955 6.72659C9.59762 5.86434 11.0093 5.44037 12.4354 5.53248C13.8616 5.6246 15.2066 6.22661 16.2237 7.22806C17.2408 8.22951 17.8617 9.56322 17.9725 10.9844C18.0833 12.4057 17.6765 13.8191 16.8269 14.9653C15.9772 16.1116 14.7417 16.9137 13.3469 17.2246C11.9522 17.5355 10.4918 17.3343 9.23378 16.6579L6.00005 17.5201ZM9.3897 15.461L9.58969 15.5794C10.5009 16.1181 11.5652 16.341 12.6167 16.2134C13.6682 16.0858 14.6478 15.6149 15.4029 14.8739C16.1581 14.133 16.6463 13.1637 16.7915 12.1172C16.9367 11.0706 16.7307 10.0055 16.2056 9.08786C15.6806 8.17024 14.866 7.45163 13.8887 7.04402C12.9115 6.63641 11.8265 6.56269 10.8029 6.83436C9.77923 7.10603 8.87444 7.70783 8.2295 8.54596C7.58456 9.3841 7.2357 10.4115 7.23727 11.468C7.23641 12.3441 7.47931 13.2032 7.93893 13.9497L8.06435 14.156L7.58301 15.9412L9.3897 15.461Z" fill="white"/>
<path fill-rule="evenodd" clip-rule="evenodd" d="M14.2436 12.2893C14.1264 12.195 13.9891 12.1286 13.8422 12.0952C13.6954 12.0618 13.5428 12.0623 13.3962 12.0966C13.1759 12.1879 13.0335 12.5328 12.8911 12.7052C12.8611 12.7465 12.817 12.7755 12.7671 12.7867C12.7171 12.7979 12.6648 12.7906 12.6199 12.7661C11.8133 12.4509 11.1372 11.873 10.7014 11.1263C10.6642 11.0797 10.6466 11.0205 10.6523 10.9612C10.658 10.9019 10.6865 10.8472 10.7319 10.8084C10.8907 10.6516 11.0073 10.4574 11.0709 10.2438C11.085 10.0081 11.0309 9.77342 10.915 9.5676C10.8253 9.27904 10.6548 9.02211 10.4235 8.82715C10.3041 8.77362 10.1718 8.75568 10.0425 8.77547C9.91321 8.79527 9.7924 8.85197 9.69467 8.93872C9.52501 9.08473 9.39035 9.26684 9.30059 9.47164C9.21084 9.67644 9.16828 9.89871 9.17606 10.1221C9.17658 10.2475 9.19252 10.3724 9.22351 10.494C9.30222 10.7861 9.42327 11.0651 9.58282 11.3224C9.69793 11.5194 9.82352 11.7101 9.95907 11.8937C10.3996 12.4969 10.9533 13.009 11.5895 13.4017C11.9087 13.6012 12.25 13.7634 12.6064 13.8852C12.9766 14.0526 13.3854 14.1168 13.7894 14.0711C14.0195 14.0364 14.2376 13.9458 14.4244 13.8072C14.6111 13.6687 14.7609 13.4864 14.8605 13.2766C14.919 13.1498 14.9368 13.0081 14.9114 12.8709C14.8503 12.5902 14.4741 12.4246 14.2436 12.2893Z" fill="white"/>
</svg>
